<svg width="18" height="19" viewBox="0 0 18 19" fill="none" xmlns="http://www.w3.org/2000/svg">
<path d="M17.273 11.5734V5.28799L4.13585 3.05235V2.27965C4.13585 1.43998 3.41108 0.756836 2.5202 0.756836H0.851562V1.78867H2.52016C2.80739 1.78867 3.04109 2.00893 3.04109 2.27965V11.8071C3.04109 12.907 3.99047 13.8018 5.15745 13.8018H5.59553V14.9776C5.37187 14.8852 5.12511 14.8336 4.86569 14.8336C3.85961 14.8336 3.04109 15.6051 3.04109 16.5533C3.04109 17.5016 3.85961 18.273 4.86569 18.273C5.81022 18.273 6.58932 17.5931 6.68114 16.7253H6.6903V13.8018H16.1782V14.9776C15.9546 14.8852 15.7078 14.8336 15.4484 14.8336C14.4423 14.8336 13.6238 15.6051 13.6238 16.5533C13.6238 17.5016 14.4423 18.273 15.4484 18.273C16.3929 18.273 17.172 17.5931 17.2638 16.7253H17.273V12.7699H5.15745C4.59412 12.7699 4.13585 12.338 4.13585 11.8071V11.4014L17.273 11.5734ZM4.86569 17.2412C4.46326 17.2412 4.13585 16.9326 4.13585 16.5533C4.13585 16.174 4.46326 15.8654 4.86569 15.8654C5.26813 15.8654 5.59553 16.174 5.59553 16.5533C5.59553 16.9326 5.26813 17.2412 4.86569 17.2412ZM15.4484 17.2412C15.046 17.2412 14.7186 16.9326 14.7186 16.5533C14.7186 16.174 15.046 15.8654 15.4484 15.8654C15.8508 15.8654 16.1782 16.174 16.1782 16.5533C16.1782 16.9326 15.8508 17.2412 15.4484 17.2412ZM9.60966 10.4411L7.42014 10.4124V4.65977L9.60966 5.03237V10.4411ZM10.7044 5.21868L12.7115 5.56025V10.4817L10.7044 10.4554V5.21868ZM6.32538 10.3981L4.13585 10.3694V4.10086L6.32538 4.47346V10.3981ZM16.1782 10.5271L13.8063 10.496V5.74653L16.1782 6.15019V10.5271Z" fill="white"/>
</svg>
