<svg width="18" height="19" viewBox="0 0 18 19" fill="none" xmlns="http://www.w3.org/2000/svg">
<path d="M17.273 11.5743V5.28896L4.13585 3.05333V2.28062C4.13585 1.44095 3.41108 0.757812 2.5202 0.757812H0.851562V1.78964H2.52016C2.80739 1.78964 3.04109 2.00991 3.04109 2.28062V11.808C3.04109 12.9079 3.99047 13.8027 5.15745 13.8027H5.59553V14.9786C5.37187 14.8862 5.12511 14.8346 4.86569 14.8346C3.85961 14.8346 3.04109 15.606 3.04109 16.5543C3.04109 17.5026 3.85961 18.274 4.86569 18.274C5.81022 18.274 6.58932 17.5941 6.68114 16.7263H6.6903V13.8027H16.1782V14.9786C15.9546 14.8862 15.7078 14.8346 15.4484 14.8346C14.4423 14.8346 13.6238 15.606 13.6238 16.5543C13.6238 17.5026 14.4423 18.274 15.4484 18.274C16.3929 18.274 17.172 17.5941 17.2638 16.7263H17.273V12.7709H5.15745C4.59412 12.7709 4.13585 12.339 4.13585 11.808V11.4023L17.273 11.5743ZM4.86569 17.2422C4.46326 17.2422 4.13585 16.9336 4.13585 16.5543C4.13585 16.175 4.46326 15.8664 4.86569 15.8664C5.26813 15.8664 5.59553 16.175 5.59553 16.5543C5.59553 16.9336 5.26813 17.2422 4.86569 17.2422ZM15.4484 17.2422C15.046 17.2422 14.7186 16.9336 14.7186 16.5543C14.7186 16.175 15.046 15.8664 15.4484 15.8664C15.8508 15.8664 16.1782 16.175 16.1782 16.5543C16.1782 16.9336 15.8508 17.2422 15.4484 17.2422ZM9.60966 10.4421L7.42014 10.4134V4.66075L9.60966 5.03334V10.4421ZM10.7044 5.21966L12.7115 5.56123V10.4827L10.7044 10.4564V5.21966ZM6.32538 10.3991L4.13585 10.3704V4.10184L6.32538 4.47444V10.3991ZM16.1782 10.5281L13.8063 10.497V5.74751L16.1782 6.15116V10.5281Z" fill="#C4C4C4"/>
</svg>
