<svg width="18" height="19" viewBox="0 0 18 19" fill="none" xmlns="http://www.w3.org/2000/svg">
<path d="M17.7213 11.5174V4.85541L3.79689 2.48581V1.6668C3.79689 0.776812 3.02869 0.0527344 2.08442 0.0527344H0.315796V1.1464H2.08439C2.38883 1.1464 2.63653 1.37986 2.63653 1.6668V11.7651C2.63653 12.9309 3.64279 13.8794 4.8797 13.8794H5.34404V15.1257C5.10698 15.0278 4.84543 14.973 4.57047 14.973C3.50409 14.973 2.63653 15.7907 2.63653 16.7958C2.63653 17.8009 3.50409 18.6186 4.57047 18.6186C5.57159 18.6186 6.39738 17.8979 6.4947 16.9781H6.50441V13.8794H16.5609V15.1257C16.3238 15.0278 16.0623 14.973 15.7873 14.973C14.721 14.973 13.8534 15.7907 13.8534 16.7958C13.8534 17.8009 14.721 18.6186 15.7873 18.6186C16.7885 18.6186 17.6142 17.8979 17.7116 16.9781H17.7213V12.7857H4.8797C4.28262 12.7857 3.79689 12.3279 3.79689 11.7651V11.3351L17.7213 11.5174ZM4.57047 17.5249C4.14392 17.5249 3.79689 17.1978 3.79689 16.7958C3.79689 16.3938 4.14392 16.0667 4.57047 16.0667C4.99702 16.0667 5.34404 16.3938 5.34404 16.7958C5.34404 17.1978 4.99702 17.5249 4.57047 17.5249ZM15.7873 17.5249C15.3608 17.5249 15.0137 17.1978 15.0137 16.7958C15.0137 16.3938 15.3608 16.0667 15.7873 16.0667C16.2139 16.0667 16.5609 16.3938 16.5609 16.7958C16.5609 17.1978 16.2139 17.5249 15.7873 17.5249ZM9.59871 10.3173L7.27798 10.2869V4.18955L9.59871 4.58447V10.3173ZM10.7591 4.78195L12.8864 5.14399V10.3604L10.7591 10.3325V4.78195ZM6.11762 10.2717L3.79689 10.2414V3.59715L6.11762 3.99207V10.2717ZM16.5609 10.4084L14.0468 10.3755V5.34143L16.5609 5.76927V10.4084Z" fill="#008DD2"/>
</svg>
