<svg width="24" height="27" viewBox="0 0 24 27" fill="none" xmlns="http://www.w3.org/2000/svg">
<path d="M23.8636 16.9484V7.65824L5.54147 4.35384V3.21174C5.54147 1.97066 4.53065 0.960938 3.28815 0.960938H0.960938V2.48604H3.2881C3.68869 2.48604 4.01462 2.8116 4.01462 3.21174V17.2938C4.01462 18.9195 5.3387 20.2421 6.96627 20.2421H7.57726V21.9801C7.26533 21.8435 6.92118 21.7672 6.55936 21.7672C5.15619 21.7672 4.01462 22.9075 4.01462 24.309C4.01462 25.7106 5.15619 26.8509 6.55936 26.8509C7.87667 26.8509 8.96328 25.8459 9.09133 24.5632H9.1041V20.2421H22.3367V21.9801C22.0248 21.8435 21.6807 21.7672 21.3189 21.7672C19.9157 21.7672 18.7741 22.9075 18.7741 24.309C18.7741 25.7106 19.9157 26.8509 21.3189 26.8509C22.6362 26.8509 23.7228 25.8459 23.8508 24.5632H23.8636V18.717H6.96627C6.18061 18.717 5.54147 18.0786 5.54147 17.2938V16.6941L23.8636 16.9484ZM6.55936 25.3258C5.9981 25.3258 5.54147 24.8697 5.54147 24.309C5.54147 23.7484 5.9981 23.2923 6.55936 23.2923C7.12063 23.2923 7.57726 23.7484 7.57726 24.309C7.57726 24.8697 7.12063 25.3258 6.55936 25.3258ZM21.3189 25.3258C20.7576 25.3258 20.301 24.8697 20.301 24.309C20.301 23.7484 20.7576 23.2923 21.3189 23.2923C21.8801 23.2923 22.3367 23.7484 22.3367 24.309C22.3367 24.8697 21.8801 25.3258 21.3189 25.3258ZM13.1757 15.2748L10.122 15.2325V6.7297L13.1757 7.28042V15.2748ZM14.7025 7.5558L17.5017 8.06067V15.3349L14.7025 15.296V7.5558ZM8.59516 15.2113L5.54147 15.1689V5.9036L8.59516 6.45432V15.2113ZM22.3367 15.4019L19.0286 15.356V8.336L22.3367 8.93262V15.4019Z" fill="#21487B"/>
</svg>
