<svg width="42" height="20" viewBox="0 0 42 20" fill="none" xmlns="http://www.w3.org/2000/svg">
<path d="M41.5188 8.85831C41.5183 8.85782 41.5179 8.85726 41.5173 8.85677L32.9447 0.469672C32.3025 -0.158634 31.2637 -0.156296 30.6245 0.475156C29.9853 1.10653 29.9877 2.12774 30.63 2.75612L36.3856 8.3871H1.64062C0.734508 8.3871 0 9.10919 0 10C0 10.8908 0.734508 11.6129 1.64062 11.6129H36.3855L30.63 17.2439C29.9878 17.8723 29.9854 18.8935 30.6245 19.5248C31.2638 20.1564 32.3027 20.1586 32.9448 19.5303L41.5174 11.1432C41.5179 11.1427 41.5183 11.1422 41.5189 11.1417C42.1614 10.5112 42.1594 9.48669 41.5188 8.85831Z" fill="#0083C3"/>
</svg>
