<svg width="18" height="4" viewBox="0 0 18 4" fill="none" xmlns="http://www.w3.org/2000/svg">
<path d="M11 2C11 3.10461 10.1046 4 9 4C7.89539 4 7 3.10461 7 2C7 0.895386 7.89539 0 9 0C10.1046 0 11 0.895386 11 2Z" fill="#C4C4C4"/>
<path d="M4 2C4 3.10461 3.10461 4 2 4C0.895386 4 0 3.10461 0 2C0 0.895386 0.895386 0 2 0C3.10461 0 4 0.895386 4 2Z" fill="#C4C4C4"/>
<path d="M18 2C18 3.10461 17.1046 4 16 4C14.8954 4 14 3.10461 14 2C14 0.895386 14.8954 0 16 0C17.1046 0 18 0.895386 18 2Z" fill="#C4C4C4"/>
</svg>
