<svg width="17" height="17" viewBox="0 0 17 17" fill="none" xmlns="http://www.w3.org/2000/svg">
<path d="M0.732378 1.28006e-06H16.2678C16.5418 -0.000504368 16.793 0.14883 16.9183 0.386652C17.0452 0.627677 17.0229 0.917918 16.8607 1.13804L11.1692 8.96005C11.1673 8.96275 11.1652 8.96528 11.1633 8.96798C10.9565 9.24035 10.8447 9.5702 10.8441 9.90932V16.2865C10.8453 16.4755 10.7692 16.6568 10.6328 16.7908C10.4963 16.9248 10.3107 17 10.1172 17C10.0188 17 9.9215 16.9808 9.83063 16.944L6.63243 15.7543C6.34581 15.669 6.1556 15.4052 6.1556 15.0875V9.90932C6.15508 9.57037 6.04313 9.24035 5.8365 8.96798C5.8346 8.96528 5.83253 8.96275 5.83063 8.96005L0.13928 1.13771C-0.0229454 0.917749 -0.0452309 0.627677 0.081749 0.386652C0.207003 0.14883 0.458202 -0.000504368 0.732378 1.28006e-06ZM6.54967 8.45677C6.86756 8.87763 7.03946 9.38648 7.04049 9.90932V14.9826L9.95951 16.0684V9.90932C9.96054 9.38648 10.1324 8.87763 10.4505 8.45677L15.976 0.862971H1.024L6.54967 8.45677Z" fill="white"/>
</svg>
