<svg width="18" height="18" viewBox="0 0 18 18" fill="none" xmlns="http://www.w3.org/2000/svg">
<path d="M9.14091 17.273C8.89155 17.273 8.65113 17.1778 8.46377 17.0049C7.75616 16.3529 7.07393 15.7402 6.47203 15.1997L6.46896 15.1969C4.70427 13.6122 3.18039 12.2437 2.12011 10.8956C0.934871 9.38857 0.382812 7.95965 0.382812 6.39865C0.382812 4.88201 0.876338 3.48281 1.77238 2.45861C2.67911 1.42231 3.92328 0.851562 5.2761 0.851562C6.28721 0.851562 7.21319 1.18841 8.02824 1.85266C8.43958 2.18796 8.81243 2.59831 9.14091 3.07696C9.46953 2.59831 9.84225 2.18796 10.2537 1.85266C11.0688 1.18841 11.9948 0.851562 13.0059 0.851562C14.3585 0.851562 15.6028 1.42231 16.5096 2.45861C17.4056 3.48281 17.899 4.88201 17.899 6.39865C17.899 7.95965 17.3471 9.38857 16.1619 10.8955C15.1016 12.2437 13.5778 13.6121 11.8134 15.1966C11.2104 15.7379 10.5271 16.3516 9.81792 17.0052C9.6307 17.1778 9.39015 17.273 9.14091 17.273ZM5.2761 1.93279C4.21328 1.93279 3.23692 2.37975 2.52663 3.19145C1.80579 4.01539 1.40875 5.15435 1.40875 6.39865C1.40875 7.71153 1.87181 8.88569 2.91004 10.2058C3.91353 11.4817 5.40613 12.8221 7.13434 14.3741L7.13755 14.3769C7.74172 14.9195 8.42662 15.5346 9.13944 16.1914C9.85655 15.5333 10.5425 14.9172 11.1479 14.3738C12.876 12.8218 14.3684 11.4817 15.3719 10.2058C16.41 8.88569 16.8731 7.71153 16.8731 6.39865C16.8731 5.15435 16.476 4.01539 15.7552 3.19145C15.045 2.37975 14.0685 1.93279 13.0059 1.93279C12.2273 1.93279 11.5125 2.19359 10.8813 2.70787C10.3188 3.16638 9.92697 3.746 9.69725 4.15157C9.57911 4.36012 9.37117 4.48461 9.14091 4.48461C8.91066 4.48461 8.70271 4.36012 8.58458 4.15157C8.35499 3.746 7.96316 3.16638 7.40055 2.70787C6.76937 2.19359 6.05454 1.93279 5.2761 1.93279Z" fill="#C4C4C4"/>
</svg>
