<svg width="25" height="25" viewBox="0 0 25 25" fill="none" xmlns="http://www.w3.org/2000/svg">
<path d="M22.9555 3.06836C21.6624 1.67846 19.8505 0.887629 17.9521 0.884698C16.0522 0.886896 14.2383 1.67731 12.9432 3.06747L12.5018 3.53388L12.0605 3.06747C9.49063 0.30165 5.16518 0.142813 2.39941 2.71263C2.27685 2.82655 2.15849 2.94486 2.04457 3.06747C-0.681522 6.00789 -0.681522 10.5522 2.04457 13.4926L11.8532 23.8364C12.1925 24.1947 12.758 24.21 13.1163 23.8707C13.128 23.8596 13.1394 23.8481 13.1505 23.8364L22.9556 13.4926C25.6815 10.5525 25.6815 6.00847 22.9555 3.06836ZM21.6627 12.2623H21.6618L12.5018 21.9235L3.34102 12.2623C1.25844 10.0155 1.25844 6.54367 3.34102 4.29692C5.23225 2.24711 8.42715 2.11859 10.477 4.00982C10.5765 4.10164 10.6722 4.19739 10.7641 4.29692L11.8532 5.44594C12.2121 5.80257 12.7916 5.80257 13.1505 5.44594L14.2397 4.29781C16.1309 2.248 19.3258 2.11948 21.3756 4.01071C21.4751 4.10253 21.5709 4.19828 21.6627 4.29781C23.7634 6.54812 23.7788 10.0263 21.6627 12.2623Z" fill="#D45555"/>
</svg>
