<svg width="24" height="14" viewBox="0 0 24 14" fill="none" xmlns="http://www.w3.org/2000/svg">
<path d="M23.6386 6.20081L23.6375 6.19974L17.1991 0.328771C16.7168 -0.111044 15.9366 -0.109407 15.4565 0.332609C14.9764 0.774569 14.9783 1.48942 15.4606 1.92929L19.7834 5.87097H0.685733C0.0052023 5.87097 0 6.37644 0 7C0 7.62357 0.00476439 8.12903 0.685295 8.12903H19.7833L15.4607 12.0707C14.9784 12.5106 14.9765 13.2254 15.4566 13.6674C15.9367 14.1095 16.7169 14.111 17.1992 13.6712L23.6375 7.80026L23.6387 7.79919C24.1212 7.35785 24.1197 6.64069 23.6386 6.20081Z" fill="white"/>
</svg>
