<svg width="19" height="18" viewBox="0 0 19 18" fill="none" xmlns="http://www.w3.org/2000/svg">
<path d="M16.277 12.3635C15.3061 12.2334 14.3731 11.9538 13.5098 11.5342C13.0873 11.3239 12.5246 11.3895 12.2172 11.6308L10.2538 12.7379C8.3338 11.357 7.23064 9.91297 6.41686 7.71472L7.956 6.15313C8.34084 5.85963 8.52893 5.38079 8.44532 4.89665C8.26718 3.94834 8.24255 2.97507 8.37269 2.00375C8.46675 1.30207 7.97238 0.654725 7.27074 0.560713L4.35844 0.1705C3.65679 0.0764878 3.00945 0.570857 2.91544 1.2725C1.83781 9.31521 7.50421 16.735 15.5469 17.8126C16.2485 17.9066 16.8959 17.4122 16.9899 16.7106L17.379 13.8064C17.473 13.1048 16.9786 12.4575 16.277 12.3635Z" fill="white"/>
</svg>
