<svg width="26" height="16" viewBox="0 0 26 16" fill="none" xmlns="http://www.w3.org/2000/svg">
<path d="M25.3002 7.38483C25.1005 7.09416 20.2998 0.286377 12.711 0.286377C6.19912 0.286377 0.39649 7.05507 0.152336 7.34361C-0.0135879 7.5402 -0.0135879 7.82875 0.152336 8.02638C0.39649 8.31493 6.19912 15.0836 12.711 15.0836C19.2228 15.0836 25.0254 8.31493 25.2695 8.02638C25.4228 7.8446 25.4366 7.58143 25.3002 7.38483ZM12.711 14.0267C7.49074 14.0267 2.52729 9.04848 1.26639 7.68502C2.52521 6.32052 7.48335 1.34335 12.711 1.34335C18.819 1.34335 23.1303 6.31418 24.183 7.65649C22.9675 8.97659 17.9756 14.0267 12.711 14.0267Z" fill="#C4C4C4"/>
<path d="M12.7173 3.45752C10.3857 3.45752 8.48956 5.35368 8.48956 7.68528C8.48956 10.0169 10.3857 11.913 12.7173 11.913C15.0489 11.913 16.9451 10.0169 16.9451 7.68528C16.9451 5.35368 15.0489 3.45752 12.7173 3.45752ZM12.7173 10.8562C10.9692 10.8562 9.54649 9.4335 9.54649 7.68533C9.54649 5.93716 10.9692 4.5145 12.7173 4.5145C14.4655 4.5145 15.8882 5.93716 15.8882 7.68533C15.8882 9.4335 14.4655 10.8562 12.7173 10.8562Z" fill="#C4C4C4"/>
</svg>
