<svg width="19" height="16" viewBox="0 0 19 16" fill="none" xmlns="http://www.w3.org/2000/svg">
<path d="M18.6963 7.28322L11.8347 0.375015C11.6389 0.17782 11.3778 0.0695801 11.0995 0.0695801C10.8208 0.0695801 10.5599 0.177975 10.364 0.375015L9.74105 1.00237C9.54534 1.19925 9.43752 1.46223 9.43752 1.74263C9.43752 2.02287 9.54534 2.29471 9.74105 2.4916L13.744 6.53052H1.02645C0.453061 6.53052 0 6.98245 0 7.55988V8.44679C0 9.02423 0.453061 9.52172 1.02645 9.52172H13.7894L9.7412 13.5832C9.54549 13.7804 9.43767 14.0362 9.43767 14.3166C9.43767 14.5967 9.54549 14.8563 9.7412 15.0533L10.3642 15.6786C10.5601 15.8758 10.821 15.9833 11.0996 15.9833C11.378 15.9833 11.639 15.8744 11.8349 15.6772L18.6965 8.76918C18.8928 8.57136 19.0008 8.3073 19 8.02659C19.0006 7.74495 18.8928 7.48073 18.6963 7.28322Z" fill="#0083C3"/>
</svg>
