<svg width="19" height="16" viewBox="0 0 19 16" fill="none" xmlns="http://www.w3.org/2000/svg">
<path d="M0.303692 8.70946L7.16526 15.6177C7.36113 15.8149 7.62218 15.9231 7.90054 15.9231C8.1792 15.9231 8.4401 15.8147 8.63597 15.6177L9.25895 14.9903C9.45466 14.7934 9.56248 14.5304 9.56248 14.25C9.56248 13.9698 9.45466 13.698 9.25895 13.5011L5.25601 9.46216L17.9735 9.46216C18.5469 9.46216 19 9.01023 19 8.43279L19 7.54588C19 6.96845 18.5469 6.47095 17.9735 6.47095L5.21059 6.47095L9.2588 2.40948C9.45451 2.21228 9.56233 1.95646 9.56233 1.67606C9.56233 1.39598 9.45451 1.13642 9.2588 0.939379L8.63582 0.314048C8.43995 0.116852 8.17905 0.00938983 7.90039 0.0093898C7.62203 0.00938978 7.36098 0.118251 7.16511 0.315446L0.303538 7.22349C0.107205 7.42131 -0.000767983 7.68538 4.47038e-06 7.96609C-0.000613534 8.24773 0.107205 8.51195 0.303692 8.70946Z" fill="#0083C3"/>
</svg>
