<svg width="20" height="19" viewBox="0 0 20 19" fill="none" xmlns="http://www.w3.org/2000/svg">
<path d="M17.6254 11.923C17.3627 11.923 17.1498 12.1359 17.1498 12.3986V16.6214C17.1489 17.4091 16.5107 18.0475 15.723 18.0482H2.37802C1.5903 18.0475 0.952138 17.4091 0.95121 16.6214V4.22763C0.952138 3.4401 1.5903 2.80175 2.37802 2.80082H6.60087C6.86357 2.80082 7.07648 2.58791 7.07648 2.32521C7.07648 2.0627 6.86357 1.84961 6.60087 1.84961H2.37802C1.06528 1.8511 0.00148626 2.91489 0 4.22763V16.6216C0.00148626 17.9343 1.06528 18.9981 2.37802 18.9996H15.723C17.0358 18.9981 18.0995 17.9343 18.101 16.6216V12.3986C18.101 12.1359 17.8881 11.923 17.6254 11.923Z" fill="#008DD2"/>
<path d="M17.9077 0.626879C17.0719 -0.20896 15.7168 -0.20896 14.8809 0.626879L6.39585 9.11197C6.3377 9.17011 6.29572 9.2422 6.27379 9.32134L5.15798 13.3497C5.11209 13.5148 5.15872 13.6917 5.27985 13.813C5.40117 13.9342 5.57804 13.9808 5.7432 13.9351L9.77153 12.8191C9.85068 12.7972 9.92276 12.7552 9.98091 12.697L18.4658 4.21175C19.3003 3.37535 19.3003 2.02137 18.4658 1.18497L17.9077 0.626879ZM7.43215 9.42111L14.3765 2.47654L16.6162 4.71615L9.67158 11.6607L7.43215 9.42111ZM6.98479 10.3188L8.77406 12.1083L6.29906 12.794L6.98479 10.3188ZM17.7933 3.53921L17.2889 4.04362L15.0491 1.80381L15.5537 1.29941C16.0179 0.835142 16.7707 0.835142 17.235 1.29941L17.7933 1.85751C18.2568 2.32234 18.2568 3.07457 17.7933 3.53921Z" fill="#008DD2"/>
</svg>
