<svg width="17" height="9" viewBox="0 0 17 9" fill="none" xmlns="http://www.w3.org/2000/svg">
<path d="M8.60261 9C11.0619 9 10.185 7.6812 10.3748 7.302C10.372 7.0188 10.3692 6.7464 10.3805 6.5808C10.5363 6.618 10.904 6.7758 11.6633 7.401C12.8356 8.403 13.1352 9 14.0822 9H15.8254C16.3779 9 16.6655 8.8062 16.8093 8.6436C16.9481 8.4864 17.0841 8.2104 16.9354 7.7808C16.5465 6.7464 14.2784 4.9602 14.1375 4.7718C14.1587 4.737 14.1927 4.6908 14.2104 4.6668H14.209C14.6567 4.1658 16.3652 1.9974 16.6166 1.1298C16.6173 1.1286 16.618 1.1268 16.618 1.125C16.754 0.729 16.6294 0.4722 16.5004 0.327C16.3064 0.1098 15.9975 0 15.5803 0H13.8371C13.2535 0 12.8108 0.249 12.5869 0.7032C12.2122 1.5102 11.1597 3.1698 10.3706 3.7572C10.3465 2.925 10.3628 2.2896 10.3756 1.8174C10.4011 0.8964 10.4832 0 9.35486 0H6.61505C5.90814 0 5.23169 0.654 5.9641 1.4304C6.60443 2.1108 6.19431 2.49 6.33243 4.3776C5.7941 3.8886 4.83645 2.568 4.15929 0.8802C3.96946 0.4236 3.68188 0.000599957 2.87226 0.000599957H1.12907C0.422162 0.000599957 0 0.327 0 0.8736C0 2.1012 3.20801 9 8.60261 9ZM2.87226 0.9006C3.02597 0.9006 3.04155 0.9006 3.15559 1.1748C3.84904 2.9046 5.40452 5.4642 6.54068 5.4642C7.39421 5.4642 7.39421 4.7232 7.39421 4.4442L7.3935 2.223C7.34675 1.488 7.03084 1.122 6.8233 0.9L9.30811 0.9024C9.30952 0.9126 9.29394 3.3594 9.31519 3.9522C9.31519 4.794 10.1043 5.2764 11.336 4.2204C12.6358 2.9778 13.5347 1.1202 13.5708 1.0446C13.6239 0.9366 13.67 0.9 13.8371 0.9H15.5803H15.5874C15.5867 0.9018 15.5867 0.9036 15.586 0.9054C15.4266 1.5354 13.8534 3.543 13.3271 4.1664C13.3186 4.176 13.3109 4.1862 13.3031 4.1964C13.0714 4.5168 12.883 4.8708 13.3349 5.3688H13.3356C13.3767 5.4108 13.4837 5.5092 13.6395 5.646C14.124 6.0696 15.7857 7.518 15.9331 8.094C15.8353 8.1072 15.7291 8.0976 14.0822 8.1006C13.7316 8.1006 13.4575 7.6566 12.4113 6.7626C11.4706 5.9874 10.86 5.6706 10.304 5.6706C9.22452 5.6706 9.30315 6.4128 9.31306 7.3104C9.31661 8.2836 9.30952 7.9758 9.31732 8.037C9.25427 8.058 9.07365 8.1 8.60261 8.1C4.10829 8.1 1.18149 2.0574 1.06886 0.9024C1.10782 0.8994 1.64402 0.9012 2.87226 0.9006Z" fill="#008DD2"/>
</svg>
