<svg width="12" height="12" viewBox="0 0 12 12" fill="none" xmlns="http://www.w3.org/2000/svg">
<path d="M11.9672 3.52804C11.9391 2.89044 11.836 2.45209 11.6883 2.07225C11.5359 1.66906 11.3015 1.30809 10.9944 1.00801C10.6943 0.703264 10.3309 0.466462 9.93242 0.316469C9.55039 0.168765 9.11433 0.0656563 8.47672 0.0375441C7.83435 0.00705095 7.63042 0 6.00119 0C4.37196 0 4.16803 0.00705095 3.52804 0.0351632C2.89044 0.0632755 2.45209 0.166476 2.07234 0.314088C1.66906 0.466462 1.30809 0.700884 1.00801 1.00801C0.703264 1.30809 0.466554 1.67144 0.316469 2.06996C0.168765 2.45209 0.0656563 2.88805 0.0375441 3.52566C0.00705095 4.16803 0 4.37196 0 6.00119C0 7.63042 0.00705095 7.83435 0.0351632 8.47434C0.0632755 9.11195 0.166476 9.55029 0.31418 9.93013C0.466554 10.3333 0.703264 10.6943 1.00801 10.9944C1.30809 11.2991 1.67144 11.5359 2.06996 11.6859C2.45209 11.8336 2.88805 11.9367 3.52575 11.9648C4.16565 11.993 4.36967 12 5.9989 12C7.62813 12 7.83206 11.993 8.47205 11.9648C9.10966 11.9367 9.54801 11.8336 9.92775 11.6859C10.7342 11.3741 11.3718 10.7365 11.6836 9.93013C11.8312 9.54801 11.9344 9.11195 11.9625 8.47434C11.9907 7.83435 11.9977 7.63042 11.9977 6.00119C11.9977 4.37196 11.9953 4.16803 11.9672 3.52804ZM10.8866 8.42745C10.8608 9.01351 10.7623 9.32998 10.6803 9.54095C10.4786 10.0637 10.0637 10.4786 9.54095 10.6803C9.32998 10.7623 9.01122 10.8608 8.42745 10.8865C7.79451 10.9147 7.60469 10.9217 6.00357 10.9217C4.40245 10.9217 4.21025 10.9147 3.5796 10.8865C2.99354 10.8608 2.67708 10.7623 2.4661 10.6803C2.20594 10.5841 1.96914 10.4318 1.77693 10.2325C1.57767 10.0379 1.4253 9.80349 1.32915 9.54334C1.2471 9.33236 1.14867 9.01351 1.12293 8.42983C1.09473 7.7969 1.08777 7.60698 1.08777 6.00586C1.08777 4.40474 1.09473 4.21254 1.12293 3.58198C1.14867 2.99592 1.2471 2.67946 1.32915 2.46848C1.4253 2.20823 1.57767 1.97152 1.77931 1.77922C1.97381 1.57996 2.20823 1.42759 2.46848 1.33153C2.67946 1.24948 2.99831 1.15105 3.58198 1.12522C4.21492 1.09711 4.40483 1.09006 6.00586 1.09006C7.60936 1.09006 7.79918 1.09711 8.42983 1.12522C9.01589 1.15105 9.33236 1.24948 9.54334 1.33153C9.80349 1.42759 10.0403 1.57996 10.2325 1.77922C10.4318 1.97381 10.5841 2.20823 10.6803 2.46848C10.7623 2.67946 10.8608 2.99821 10.8866 3.58198C10.9147 4.21492 10.9218 4.40474 10.9218 6.00586C10.9218 7.60698 10.9147 7.79451 10.8866 8.42745Z" fill="#008DD2"/>
<path d="M6.00061 2.91797C4.29877 2.91797 2.91797 4.29867 2.91797 6.00061C2.91797 7.70255 4.29877 9.08325 6.00061 9.08325C7.70255 9.08325 9.08325 7.70255 9.08325 6.00061C9.08325 4.29867 7.70255 2.91797 6.00061 2.91797ZM6.00061 8.00025C4.89654 8.00025 4.00098 7.10477 4.00098 6.00061C4.00098 4.89645 4.89654 4.00098 6.00061 4.00098C7.10477 4.00098 8.00025 4.89645 8.00025 6.00061C8.00025 7.10477 7.10477 8.00025 6.00061 8.00025Z" fill="#008DD2"/>
<path d="M9.9239 2.79683C9.9239 3.19425 9.60166 3.51649 9.20415 3.51649C8.80674 3.51649 8.4845 3.19425 8.4845 2.79683C8.4845 2.39933 8.80674 2.07718 9.20415 2.07718C9.60166 2.07718 9.9239 2.39933 9.9239 2.79683Z" fill="#008DD2"/>
</svg>
