<svg width="13" height="14" viewBox="0 0 13 14" fill="none" xmlns="http://www.w3.org/2000/svg">
<path fill-rule="evenodd" clip-rule="evenodd" d="M11.1059 1.8983C9.88386 0.674811 8.25862 0.000717544 6.52719 0C2.95939 0 0.0557293 2.90359 0.0542942 6.47233C0.0538159 7.61315 0.351836 8.72678 0.918298 9.70838L0 13.0625L3.43138 12.1624C4.37686 12.6781 5.4413 12.9499 6.52456 12.9503H6.52727C10.0947 12.9503 12.9986 10.0464 13 6.47752C13.0007 4.74792 12.3281 3.12172 11.1059 1.8983ZM6.52719 11.8571H6.52495C5.55962 11.8567 4.61286 11.5973 3.78672 11.1072L3.59036 10.9906L1.55412 11.5247L2.09762 9.53944L1.96966 9.3359C1.4311 8.47931 1.14672 7.48926 1.14719 6.47273C1.14831 3.50648 3.56181 1.09322 6.52934 1.09322C7.96634 1.0937 9.31716 1.65402 10.3329 2.67094C11.3486 3.68786 11.9077 5.03956 11.9072 6.47712C11.9059 9.44361 9.49256 11.8571 6.52719 11.8571ZM9.47821 7.82778C9.31652 7.74677 8.52132 7.35563 8.37303 7.30158C8.2249 7.2476 8.11695 7.22073 8.00924 7.38258C7.90136 7.54443 7.59147 7.90878 7.49707 8.01665C7.40267 8.1246 7.30843 8.13816 7.14667 8.05715C6.9849 7.97623 6.4638 7.80537 5.846 7.25438C5.36524 6.82553 5.04067 6.2959 4.94628 6.13405C4.85204 5.97205 4.94548 5.89296 5.01723 5.80398C5.19231 5.58657 5.36763 5.35863 5.42153 5.25075C5.47551 5.1428 5.44848 5.04833 5.40798 4.9674C5.36763 4.88648 5.04418 4.0904 4.90944 3.76647C4.77805 3.45123 4.64483 3.49381 4.54549 3.48886C4.45125 3.48416 4.34338 3.4832 4.23551 3.4832C4.12772 3.4832 3.95248 3.52362 3.80418 3.68563C3.65597 3.84756 3.2382 4.23878 3.2382 5.03485C3.2382 5.83093 3.81774 6.59998 3.89858 6.70793C3.97942 6.81588 5.03908 8.44949 6.66145 9.14997C7.04733 9.31676 7.34854 9.41618 7.58349 9.49073C7.97097 9.61383 8.32344 9.59645 8.60217 9.55483C8.91294 9.50835 9.55897 9.16353 9.69387 8.78578C9.82861 8.40795 9.82861 8.08418 9.78811 8.01665C9.74777 7.9492 9.6399 7.90878 9.47821 7.82778Z" fill="#008DD2"/>
</svg>
