<svg width="14" height="14" viewBox="0 0 14 14" fill="none" xmlns="http://www.w3.org/2000/svg">
<path d="M13.2808 8.10481C13.6981 4.59215 13.0804 2.37453 11.966 1.3715L11.9666 1.37091C10.168 -0.341994 4.09387 -0.59552 1.9421 1.44784C0.975785 2.44738 0.635418 3.91434 0.598118 5.7304C0.560817 7.54705 0.516523 10.9501 3.68764 11.8733H3.69056L3.68764 13.2832C3.68764 13.2832 3.66608 13.8543 4.03092 13.9691C4.44822 14.1043 4.63705 13.8392 5.93499 12.2889C8.10541 12.4771 9.77228 12.0458 9.96169 11.9829C10.4 11.836 12.8799 11.5079 13.2808 8.10481ZM6.14889 11.2969C6.14889 11.2969 4.77518 13.0098 4.34798 13.4545C4.2081 13.599 4.05482 13.5856 4.05715 13.2989C4.05715 13.1106 4.06764 10.9583 4.06764 10.9583C1.3791 10.1878 1.53762 7.29003 1.56676 5.77411C1.5959 4.25762 1.87333 3.01563 2.6916 2.17928C4.57936 0.409261 9.90458 0.804995 11.2614 2.0802C12.9201 3.55066 12.3297 7.70499 12.3332 7.84662C11.9922 10.6873 9.98267 10.8674 9.61317 10.9903C9.45522 11.0428 7.98943 11.4199 6.14889 11.2969Z" fill="#008DD2"/>
<path d="M6.90657 2.51367C6.68218 2.51367 6.68218 2.86336 6.90657 2.86628C8.64745 2.87968 10.0812 4.09311 10.0969 6.3189C10.0969 6.55378 10.4408 6.55086 10.4379 6.31598H10.4373C10.4186 3.91768 8.85319 2.52708 6.90657 2.51367Z" fill="#008DD2"/>
<path d="M9.19373 5.9486C9.18848 6.18056 9.53176 6.19163 9.53468 5.95676C9.56324 4.63434 8.74787 3.54505 7.21564 3.43024C6.99125 3.41392 6.96794 3.76652 7.19174 3.78284C8.52057 3.88367 9.22054 4.79054 9.19373 5.9486Z" fill="#008DD2"/>
<path d="M8.82555 7.45261C8.53764 7.28592 8.24448 7.38966 8.12325 7.55343L7.86973 7.88156C7.74092 8.04825 7.50022 8.0261 7.50022 8.0261C5.7436 7.56159 5.27385 5.72338 5.27385 5.72338C5.27385 5.72338 5.25229 5.47452 5.41314 5.34105L5.7302 5.07878C5.88872 4.95289 5.98897 4.64983 5.82753 4.35201C5.39624 3.57278 5.10658 3.3041 4.95913 3.09778C4.8041 2.9037 4.57097 2.85999 4.32852 2.99112H4.32327C3.81913 3.28603 3.2672 3.83796 3.4438 4.40621C3.74512 5.00535 4.29879 6.91525 6.06357 8.35831C6.89292 9.04079 8.20543 9.74017 8.76261 9.90161L8.76785 9.90977C9.31687 10.0928 9.85073 9.51928 10.1357 8.99999V8.99591C10.2622 8.74472 10.2202 8.50693 10.0355 8.35131C9.70794 8.03193 9.21371 7.67932 8.82555 7.45261Z" fill="#008DD2"/>
<path d="M7.45704 4.73188C8.01713 4.76452 8.28872 5.0571 8.31786 5.65798C8.32835 5.89286 8.6693 5.87654 8.65881 5.64167C8.62151 4.85719 8.21237 4.42008 7.47569 4.37928C7.2513 4.36587 7.23032 4.71848 7.45704 4.73188Z" fill="#008DD2"/>
</svg>
