<svg width="15" height="13" viewBox="0 0 15 13" fill="none" xmlns="http://www.w3.org/2000/svg">
<path d="M14.1736 0.333449C13.9978 0.118399 13.7344 0 13.4319 0C13.2675 0 13.0933 0.034597 12.9143 0.103022L0.728427 4.75473C0.0817374 5.00152 -0.00535916 5.37187 0.000242258 5.57067C0.00584367 5.76946 0.113808 6.13433 0.773458 6.34421C0.777412 6.34542 0.781366 6.34663 0.78532 6.34773L3.31299 7.07108L4.67996 10.98C4.86634 11.5129 5.28469 11.8439 5.7719 11.8439C6.0791 11.8439 6.38125 11.7152 6.64572 11.4718L8.20918 10.0323L10.4769 11.8582C10.4771 11.8584 10.4774 11.8585 10.4776 11.8588L10.4992 11.8761C10.5012 11.8776 10.5032 11.8793 10.5052 11.8808C10.7573 12.0763 11.0324 12.1796 11.3012 12.1797H11.3013C11.8264 12.1797 12.2445 11.791 12.3663 11.1896L14.3629 1.33061C14.4431 0.934888 14.3759 0.580791 14.1736 0.333449ZM4.15858 6.93368L9.03522 4.44237L5.99871 7.6689C5.94895 7.72172 5.9137 7.78642 5.89634 7.85682L5.31083 10.2285L4.15858 6.93368ZM6.07427 10.8513C6.05406 10.8698 6.03374 10.8864 6.01342 10.9017L6.55665 8.70153L7.54481 9.49726L6.07427 10.8513ZM13.5362 1.16312L11.5396 11.0222C11.5204 11.1165 11.459 11.3361 11.3012 11.3361C11.2232 11.3361 11.1252 11.2936 11.0249 11.2164L8.45531 9.14734C8.45498 9.14701 8.45454 9.14668 8.45411 9.14646L6.92514 7.91525L11.3163 3.24926C11.4569 3.09989 11.4696 2.87111 11.3465 2.70702C11.2233 2.54294 11 2.49131 10.8174 2.58467L3.59504 6.27436L1.03299 5.54134L13.2151 0.891065C13.318 0.851746 13.3898 0.843508 13.4319 0.843508C13.4577 0.843508 13.5036 0.846583 13.5206 0.867561C13.5431 0.894909 13.5716 0.988157 13.5362 1.16312Z" fill="#008DD2"/>
</svg>
