<svg width="37" height="37" viewBox="0 0 37 37" fill="none" xmlns="http://www.w3.org/2000/svg">
<path d="M4.75912 0.904785H31.5165C34.0586 0.904785 36.1367 2.98383 36.1367 5.52611V32.2856C36.1367 34.8272 34.0586 36.9048 31.5165 36.9048H4.75912C2.21704 36.9048 0.136719 34.8271 0.136719 32.2856V5.52611C0.136719 2.98383 2.21704 0.904785 4.75912 0.904785ZM26.3622 4.90314C25.4697 4.90314 24.7416 5.63412 24.7416 6.52627V10.4043C24.7416 11.2968 25.4697 12.0261 26.3622 12.0261H30.4306C31.3217 12.0261 32.0513 11.2968 32.0513 10.4043V6.52627C32.0513 5.63412 31.3217 4.90314 30.4306 4.90314H26.3622ZM32.0668 16.1287H28.8993C29.1996 17.1098 29.3625 18.1444 29.3625 19.22C29.3625 25.2064 24.3506 30.0617 18.1706 30.0617C11.9921 30.0617 6.98008 25.2064 6.98008 19.22C6.98008 18.1444 7.14448 17.1098 7.4434 16.1287H4.13872V31.3378C4.13872 32.1254 4.7818 32.7661 5.56864 32.7661H30.6375C31.425 32.7661 32.0668 32.1254 32.0668 31.3378V16.1287ZM18.1707 11.8216C14.1795 11.8216 10.9419 14.9572 10.9419 18.8287C10.9419 22.6962 14.1795 25.8343 18.1707 25.8343C22.164 25.8343 25.4018 22.6962 25.4018 18.8287C25.4018 14.9571 22.164 11.8216 18.1707 11.8216Z" fill="#008DD2"/>
</svg>
