<svg width="22" height="22" viewBox="0 0 22 22" fill="none" xmlns="http://www.w3.org/2000/svg">
<path d="M21.9441 6.46808C21.8925 5.29913 21.7035 4.49549 21.4326 3.79912C21.1532 3.05995 20.7234 2.39817 20.1602 1.84802C19.6099 1.28932 18.9437 0.855181 18.2129 0.580193C17.5124 0.309403 16.7128 0.12037 15.5436 0.0688308C14.3657 0.0129267 13.9918 0 11.0043 0C8.01679 0 7.64285 0.0129267 6.46931 0.0644659C5.30014 0.116005 4.49635 0.305206 3.80002 0.575828C3.06053 0.855181 2.39862 1.28495 1.84838 1.84802C1.28956 2.39817 0.855512 3.06431 0.580304 3.79493C0.309462 4.49549 0.120393 5.29477 0.0688439 6.46371C0.0129292 7.64139 0 8.01526 0 11.0022C0 13.9891 0.0129292 14.363 0.0644782 15.5363C0.116027 16.7052 0.305264 17.5089 0.576106 18.2052C0.855512 18.9444 1.28956 19.6062 1.84838 20.1563C2.39862 20.715 3.0649 21.1492 3.79565 21.4242C4.49635 21.695 5.29578 21.884 6.46512 21.9355C7.63849 21.9872 8.01259 22 11.0001 22C13.9876 22 14.3615 21.9872 15.5351 21.9355C16.7042 21.884 17.508 21.695 18.2043 21.4242C19.6832 20.8525 20.8523 19.6836 21.4241 18.2052C21.6947 17.5047 21.884 16.7052 21.9355 15.5363C21.9871 14.363 22 13.9891 22 11.0022C22 8.01526 21.9956 7.64139 21.9441 6.46808ZM19.9626 15.4503C19.9152 16.5248 19.7347 17.105 19.5843 17.4918C19.2145 18.4502 18.4537 19.2108 17.4951 19.5805C17.1082 19.7309 16.5237 19.9114 15.4533 19.9586C14.2927 20.0103 13.9446 20.023 11.0086 20.023C8.07271 20.023 7.72026 20.0103 6.56385 19.9586C5.48921 19.9114 4.90891 19.7309 4.52204 19.5805C4.045 19.4042 3.61078 19.1249 3.25833 18.7596C2.89296 18.4028 2.61355 17.9731 2.43724 17.4961C2.28679 17.1093 2.10629 16.5248 2.05911 15.4547C2.00739 14.2943 1.99463 13.9461 1.99463 11.0107C1.99463 8.07536 2.00739 7.72298 2.05911 6.56696C2.10629 5.49253 2.28679 4.91234 2.43724 4.52554C2.61355 4.04843 2.89296 3.61446 3.2627 3.26191C3.61934 2.8966 4.0492 2.61725 4.5264 2.44114C4.91327 2.29072 5.49794 2.11025 6.56821 2.06291C7.72882 2.01137 8.07707 1.99844 11.0128 1.99844C13.9532 1.99844 14.3012 2.01137 15.4576 2.06291C16.5323 2.11025 17.1126 2.29072 17.4995 2.44114C17.9765 2.61725 18.4107 2.8966 18.7632 3.26191C19.1285 3.61865 19.4079 4.04843 19.5843 4.52554C19.7347 4.91234 19.9152 5.49673 19.9626 6.56696C20.0141 7.72735 20.027 8.07536 20.027 11.0107C20.027 13.9461 20.0141 14.2899 19.9626 15.4503Z" fill="white"/>
<path d="M11.001 5.35156C7.88033 5.35156 5.34839 7.88286 5.34839 11.0031C5.34839 14.1233 7.88033 16.6546 11.001 16.6546C14.1218 16.6546 16.6536 14.1233 16.6536 11.0031C16.6536 7.88286 14.1218 5.35156 11.001 5.35156ZM11.001 14.6691C8.97646 14.6691 7.33428 13.0274 7.33428 11.0031C7.33428 8.97878 8.97646 7.33708 11.001 7.33708C13.0257 7.33708 14.6677 8.97878 14.6677 11.0031C14.6677 13.0274 13.0257 14.6691 11.001 14.6691V14.6691Z" fill="white"/>
<path d="M18.4343 5.26712C18.4343 5.99572 17.8434 6.58649 17.1145 6.58649C16.3858 6.58649 15.7949 5.99572 15.7949 5.26712C15.7949 4.53836 16.3858 3.94775 17.1145 3.94775C17.8434 3.94775 18.4343 4.53836 18.4343 5.26712V5.26712Z" fill="white"/>
</svg>
