<svg width="45" height="37" viewBox="0 0 45 37" fill="none" xmlns="http://www.w3.org/2000/svg">
<path d="M44.707 5.16614C43.0708 5.88891 41.3273 6.36799 39.5095 6.6006C41.3795 5.4763 42.8068 3.70953 43.4778 1.57999C41.7343 2.62676 39.8093 3.36614 37.7578 3.77876C36.1023 2.00368 33.7428 0.904297 31.1688 0.904297C26.1748 0.904297 22.1543 4.98614 22.1543 9.99014C22.1543 10.7101 22.2148 11.4025 22.3633 12.0615C14.864 11.6932 8.22828 8.07384 3.77053 2.5603C2.99228 3.91999 2.53578 5.4763 2.53578 7.15168C2.53578 10.2975 4.14453 13.0861 6.54253 14.7006C5.09328 14.6729 3.67153 14.2492 2.46703 13.5818C2.46703 13.6095 2.46703 13.6455 2.46703 13.6815C2.46703 18.0957 5.59378 21.7621 9.69403 22.6068C8.95978 22.8089 8.15953 22.9058 7.32903 22.9058C6.75153 22.9058 6.16853 22.8726 5.62128 22.7508C6.79003 26.348 10.1065 28.9926 14.05 29.0785C10.981 31.496 7.08428 32.9526 2.86578 32.9526C2.12603 32.9526 1.41653 32.9194 0.707031 32.828C4.70278 35.4228 9.43828 36.9043 14.545 36.9043C31.144 36.9043 40.219 23.0581 40.219 11.0563C40.219 10.6548 40.2053 10.2671 40.186 9.88214C41.9763 8.60276 43.4805 7.00491 44.707 5.16614Z" fill="#008DD2"/>
</svg>
