<svg width="97" height="148" viewBox="0 0 97 148" fill="none" xmlns="http://www.w3.org/2000/svg">
<path d="M53.507 3.00009L53.5069 2.99996C52.3779 1.43173 50.5664 0.5 48.6392 0.5C46.712 0.5 44.9005 1.43173 43.7715 2.99996L43.7714 3.00009C41.5774 6.04949 30.9717 24.3177 20.9222 44.8104C15.8942 55.0633 10.9978 65.8884 7.3571 75.6614C3.72323 85.4161 1.31641 94.1839 1.31641 100.297C1.31641 126.562 22.5519 147.171 48.6392 147.171C74.7265 147.171 95.962 126.562 95.962 100.297C95.962 94.1839 93.5552 85.4161 89.9213 75.6614C86.2806 65.8884 81.3842 55.0633 76.3562 44.8104C66.3067 24.3177 55.701 6.04949 53.507 3.00009ZM48.6392 135.085C29.1619 135.085 13.3335 119.877 13.3335 100.297C13.3335 96.5418 14.7349 90.6129 17.0762 83.4857C19.4116 76.3767 22.6628 68.1312 26.3225 59.768C33.4904 43.3874 42.2055 26.5992 48.6392 17.05C55.0729 26.5992 63.788 43.3874 70.9559 59.768C74.6156 68.1312 77.8668 76.3767 80.2022 83.4857C82.5435 90.6129 83.9449 96.5418 83.9449 100.297C83.9449 119.877 68.1165 135.085 48.6392 135.085Z" fill="#E8E8E8" stroke="white"/>
<path d="M50.2885 15.0293L48.6392 12.6248L46.9899 15.0293C40.3904 24.6508 31.3803 41.9733 24.0321 58.7658C20.352 67.1758 17.0686 75.4986 14.7011 82.7055C12.3575 89.8396 10.8335 96.1046 10.8335 100.297C10.8335 121.311 27.8348 137.585 48.6392 137.585C69.4436 137.585 86.4449 121.311 86.4449 100.297C86.4449 96.1046 84.9209 89.8396 82.5773 82.7055C80.2098 75.4986 76.9264 67.1758 73.2463 58.7658C65.8981 41.9733 56.8881 24.6508 50.2885 15.0293ZM48.6392 3C49.7576 3 50.8158 3.54112 51.4777 4.46017C53.5397 7.32615 64.0681 25.4308 74.1116 45.9112C79.1206 56.1253 83.978 66.8687 87.5786 76.5341C91.2063 86.2722 93.462 94.6715 93.462 100.297C93.462 125.144 73.3831 144.671 48.6392 144.671C23.8953 144.671 3.81641 125.144 3.81641 100.297C3.81641 94.6715 6.07213 86.2722 9.69983 76.5341C13.3004 66.8687 18.1579 56.1253 23.1668 45.9112C33.2103 25.4308 43.7387 7.32615 45.8007 4.46017C46.4626 3.54112 47.5208 3 48.6392 3Z" fill="#E8E8E8" stroke="white" stroke-width="4"/>
<mask id="mask0" mask-type="alpha" maskUnits="userSpaceOnUse" x="11" y="13" width="75" height="125">
<path d="M48.5 137.5C28.0882 137.5 11.5 121.572 11.5 101.065C11.5 97.1302 12.9688 90.9214 15.4209 83.4614C17.8671 76.0196 21.2725 67.3883 25.1055 58.6342C32.6201 41.4716 41.7588 23.8806 48.5 13.8888C55.2412 23.8806 64.3798 41.4716 71.8945 58.6342C75.7275 67.3883 79.1329 76.0196 81.5791 83.4614C84.0312 90.9214 85.5 97.1302 85.5 101.065C85.5 121.572 68.9118 137.5 48.5 137.5Z" fill="white" stroke="black"/>
</mask>
<g mask="url(#mask0)">
<path d="M19.0439 61.4129C39.9334 42.5312 38.4529 76.9982 77.0786 50.446C86.4158 44.0274 99.7073 108.731 83.0909 126.163C63.8077 146.393 44.0457 151.91 23.9455 134.893C5.35739 119.156 4.55879 74.5058 19.0439 61.4129Z" fill="#E8E8E8"/>
</g>
<path d="M49 141C26.3443 141 8 123.838 8 101.815C8 97.6186 9.62058 90.9283 12.3667 82.8127C15.1001 74.7346 18.9079 65.3584 23.1968 55.8428C31.4762 37.4739 41.5094 18.6713 49 7.75066C56.4906 18.6713 66.5238 37.4739 74.8032 55.8428C79.0921 65.3584 82.8999 74.7346 85.6333 82.8127C88.3794 90.9283 90 97.6186 90 101.815C90 123.838 71.6557 141 49 141Z" stroke="#E8E8E8" stroke-width="2"/>
<path d="M26.6742 92.588C27.6542 92.588 28.4615 92.896 29.0962 93.512C29.7309 94.1187 30.0482 94.9073 30.0482 95.878C30.0482 96.8487 29.7309 97.642 29.0962 98.258C28.4615 98.874 27.6542 99.182 26.6742 99.182C25.6849 99.182 24.8729 98.874 24.2382 98.258C23.6129 97.642 23.3002 96.8487 23.3002 95.878C23.3002 95.122 23.4962 94.4687 23.8882 93.918L27.0382 89.2H28.5222L26.2122 92.616C26.4175 92.5973 26.5715 92.588 26.6742 92.588ZM25.1622 97.376C25.5542 97.7493 26.0582 97.936 26.6742 97.936C27.2902 97.936 27.7895 97.7493 28.1722 97.376C28.5642 96.9933 28.7602 96.494 28.7602 95.878C28.7602 95.262 28.5642 94.7673 28.1722 94.394C27.7895 94.0207 27.2902 93.834 26.6742 93.834C26.0489 93.834 25.5449 94.0207 25.1622 94.394C24.7795 94.7673 24.5882 95.262 24.5882 95.878C24.5882 96.494 24.7795 96.9933 25.1622 97.376ZM37.6374 97.796C36.9747 98.72 36.0461 99.182 34.8514 99.182C33.6567 99.182 32.7281 98.72 32.0654 97.796C31.4027 96.872 31.0714 95.64 31.0714 94.1C31.0714 92.56 31.4027 91.328 32.0654 90.404C32.7281 89.48 33.6567 89.018 34.8514 89.018C36.0461 89.018 36.9747 89.48 37.6374 90.404C38.3001 91.328 38.6314 92.56 38.6314 94.1C38.6314 95.64 38.3001 96.872 37.6374 97.796ZM33.0174 96.914C33.4467 97.5767 34.0581 97.908 34.8514 97.908C35.6447 97.908 36.2561 97.5767 36.6854 96.914C37.1241 96.2513 37.3434 95.3133 37.3434 94.1C37.3434 92.8867 37.1241 91.9487 36.6854 91.286C36.2561 90.614 35.6447 90.278 34.8514 90.278C34.0581 90.278 33.4467 90.6093 33.0174 91.272C32.5881 91.9347 32.3734 92.8773 32.3734 94.1C32.3734 95.3133 32.5881 96.2513 33.0174 96.914ZM43.8098 95.29V94.114H48.9198V95.29H43.8098ZM56.2368 89.2H57.3568V99H56.0688V90.6L53.9828 91.216L53.6608 90.096L56.2368 89.2ZM65.6511 97.796C64.9884 98.72 64.0597 99.182 62.8651 99.182C61.6704 99.182 60.7417 98.72 60.0791 97.796C59.4164 96.872 59.0851 95.64 59.0851 94.1C59.0851 92.56 59.4164 91.328 60.0791 90.404C60.7417 89.48 61.6704 89.018 62.8651 89.018C64.0597 89.018 64.9884 89.48 65.6511 90.404C66.3137 91.328 66.6451 92.56 66.6451 94.1C66.6451 95.64 66.3137 96.872 65.6511 97.796ZM61.0311 96.914C61.4604 97.5767 62.0717 97.908 62.8651 97.908C63.6584 97.908 64.2697 97.5767 64.6991 96.914C65.1377 96.2513 65.3571 95.3133 65.3571 94.1C65.3571 92.8867 65.1377 91.9487 64.6991 91.286C64.2697 90.614 63.6584 90.278 62.8651 90.278C62.0717 90.278 61.4604 90.6093 61.0311 91.272C60.6017 91.9347 60.3871 92.8773 60.3871 94.1C60.3871 95.3133 60.6017 96.2513 61.0311 96.914ZM74.4694 97.796C73.8068 98.72 72.8781 99.182 71.6834 99.182C70.4888 99.182 69.5601 98.72 68.8974 97.796C68.2348 96.872 67.9034 95.64 67.9034 94.1C67.9034 92.56 68.2348 91.328 68.8974 90.404C69.5601 89.48 70.4888 89.018 71.6834 89.018C72.8781 89.018 73.8068 89.48 74.4694 90.404C75.1321 91.328 75.4634 92.56 75.4634 94.1C75.4634 95.64 75.1321 96.872 74.4694 97.796ZM69.8494 96.914C70.2788 97.5767 70.8901 97.908 71.6834 97.908C72.4768 97.908 73.0881 97.5767 73.5174 96.914C73.9561 96.2513 74.1754 95.3133 74.1754 94.1C74.1754 92.8867 73.9561 91.9487 73.5174 91.286C73.0881 90.614 72.4768 90.278 71.6834 90.278C70.8901 90.278 70.2788 90.6093 69.8494 91.272C69.4201 91.9347 69.2054 92.8773 69.2054 94.1C69.2054 95.3133 69.4201 96.2513 69.8494 96.914ZM42.6242 108V115H41.4342V109.918L39.2082 113.502H39.0542L36.8282 109.918V115H35.6242V108H36.9262L39.1242 111.542L41.3222 108H42.6242ZM49.0756 108V109.176H45.7016V115H44.4836V108H49.0756ZM50.4797 116.4H49.7517L55.3517 103.8H56.0797L50.4797 116.4ZM63.3782 108V115H62.1602V109.176H59.4022V112.032C59.4022 113.18 59.1689 113.983 58.7022 114.44C58.2449 114.888 57.5962 115.075 56.7562 115V113.852C57.2322 113.917 57.5869 113.815 57.8202 113.544C58.0629 113.264 58.1842 112.751 58.1842 112.004V108H63.3782Z" fill="#959595"/>
</svg>
