<svg width="96" height="148" viewBox="0 0 96 148" fill="none" xmlns="http://www.w3.org/2000/svg">
<path d="M52.6906 3.00009L52.6905 2.99996C51.5615 1.43173 49.75 0.5 47.8228 0.5C45.8956 0.5 44.0841 1.43173 42.9551 2.99996L42.955 3.00009C40.761 6.04949 30.1553 24.3177 20.1058 44.8104C15.0778 55.0633 10.1813 65.8884 6.5407 75.6614C2.90682 85.4161 0.5 94.1839 0.5 100.297C0.5 126.562 21.7355 147.171 47.8228 147.171C73.9101 147.171 95.1456 126.562 95.1456 100.297C95.1456 94.1839 92.7388 85.4161 89.1049 75.6614C85.4642 65.8884 80.5678 55.0633 75.5398 44.8104C65.4903 24.3177 54.8846 6.04949 52.6906 3.00009ZM47.8228 135.085C28.3455 135.085 12.5171 119.877 12.5171 100.297C12.5171 96.5418 13.9185 90.6129 16.2598 83.4857C18.5951 76.3767 21.8464 68.1312 25.506 59.768C32.674 43.3874 41.3891 26.5992 47.8228 17.05C54.2565 26.5992 62.9716 43.3874 70.1395 59.768C73.7991 68.1312 77.0504 76.3767 79.3858 83.4857C81.7271 90.6129 83.1285 96.5418 83.1285 100.297C83.1285 119.877 67.3001 135.085 47.8228 135.085Z" fill="#E8E8E8" stroke="white"/>
<path d="M49.4721 15.0293L47.8228 12.6248L46.1735 15.0293C39.5739 24.6508 30.5639 41.9733 23.2157 58.7658C19.5356 67.1758 16.2522 75.4986 13.8847 82.7055C11.5411 89.8396 10.0171 96.1046 10.0171 100.297C10.0171 121.311 27.0184 137.585 47.8228 137.585C68.6272 137.585 85.6285 121.311 85.6285 100.297C85.6285 96.1046 84.1045 89.8396 81.7609 82.7055C79.3934 75.4986 76.11 67.1758 72.4299 58.7658C65.0817 41.9733 56.0716 24.6508 49.4721 15.0293ZM47.8228 3C48.9412 3 49.9994 3.54112 50.6613 4.46017C52.7233 7.32615 63.2517 25.4308 73.2952 45.9112C78.3041 56.1253 83.1616 66.8687 86.7622 76.5341C90.3899 86.2722 92.6456 94.6715 92.6456 100.297C92.6456 125.144 72.5667 144.671 47.8228 144.671C23.0789 144.671 3 125.144 3 100.297C3 94.6715 5.25572 86.2722 8.88342 76.5341C12.484 66.8687 17.3414 56.1253 22.3504 45.9112C32.3939 25.4308 42.9223 7.32615 44.9843 4.46017C45.6462 3.54112 46.7044 3 47.8228 3Z" fill="#E8E8E8" stroke="white" stroke-width="4"/>
<mask id="mask0" mask-type="alpha" maskUnits="userSpaceOnUse" x="10" y="13" width="76" height="125">
<path d="M47.6836 137.5C27.2718 137.5 10.6836 121.572 10.6836 101.065C10.6836 97.1302 12.1524 90.9214 14.6045 83.4614C17.0507 76.0196 20.4561 67.3883 24.2891 58.6342C31.8037 41.4716 40.9424 23.8806 47.6836 13.8888C54.4248 23.8806 63.5634 41.4716 71.0781 58.6342C74.9111 67.3883 78.3165 76.0196 80.7627 83.4614C83.2148 90.9214 84.6836 97.1302 84.6836 101.065C84.6836 121.572 68.0954 137.5 47.6836 137.5Z" fill="white" stroke="black"/>
</mask>
<g mask="url(#mask0)">
<path d="M18.2275 61.4129C39.117 42.5312 37.6364 76.9982 76.2622 50.446C85.5994 44.0274 98.8909 108.731 82.2745 126.163C62.9913 146.393 43.2293 151.91 23.1291 134.893C4.54099 119.156 3.74238 74.5058 18.2275 61.4129Z" fill="#E8E8E8"/>
</g>
<path d="M48.1836 141C25.5279 141 7.18359 123.838 7.18359 101.815C7.18359 97.6186 8.80417 90.9283 11.5503 82.8127C14.2837 74.7346 18.0915 65.3584 22.3804 55.8428C30.6598 37.4739 40.693 18.6713 48.1836 7.75066C55.6742 18.6713 65.7074 37.4739 73.9867 55.8428C78.2757 65.3584 82.0835 74.7346 84.8169 82.8127C87.563 90.9283 89.1836 97.6186 89.1836 101.815C89.1836 123.838 70.8393 141 48.1836 141Z" stroke="#E8E8E8" stroke-width="2"/>
<path d="M29.4361 89.2H30.5561V99H29.2681V90.6L27.1821 91.216L26.8601 90.096L29.4361 89.2ZM35.4343 93.022C36.3583 93.022 37.1376 93.2973 37.7723 93.848C38.4163 94.3893 38.7383 95.1407 38.7383 96.102C38.7383 97.054 38.4116 97.8053 37.7583 98.356C37.105 98.9067 36.3116 99.182 35.3783 99.182C34.6316 99.182 33.9643 99.0047 33.3763 98.65C32.7883 98.286 32.3776 97.7633 32.1443 97.082L33.2503 96.452C33.381 96.928 33.633 97.292 34.0063 97.544C34.3796 97.7867 34.837 97.908 35.3783 97.908C35.9943 97.908 36.4936 97.7493 36.8763 97.432C37.259 97.1147 37.4503 96.6713 37.4503 96.102C37.4503 95.5327 37.259 95.0893 36.8763 94.772C36.4936 94.4453 36.0036 94.282 35.4063 94.282H32.6343L32.9983 89.2H38.3603V90.418H34.1743L34.0063 93.022H35.4343ZM43.8059 95.29V94.114H48.9159V95.29H43.8059ZM53.9649 99V97.936L57.4229 94.408C58.3469 93.484 58.8089 92.6907 58.8089 92.028C58.8089 91.4773 58.6409 91.048 58.3049 90.74C57.9689 90.432 57.5583 90.278 57.0729 90.278C56.1489 90.278 55.4769 90.7167 55.0569 91.594L53.9649 90.95C54.2729 90.3153 54.6976 89.8347 55.2389 89.508C55.7896 89.1813 56.3963 89.018 57.0589 89.018C57.8803 89.018 58.5943 89.2887 59.2009 89.83C59.8076 90.3713 60.1109 91.0993 60.1109 92.014C60.1109 93.0033 59.5276 94.0813 58.3609 95.248L55.8549 97.74H60.2929V99H53.9649ZM64.5144 93.022C65.4384 93.022 66.2177 93.2973 66.8524 93.848C67.4964 94.3893 67.8184 95.1407 67.8184 96.102C67.8184 97.054 67.4917 97.8053 66.8384 98.356C66.185 98.9067 65.3917 99.182 64.4584 99.182C63.7117 99.182 63.0444 99.0047 62.4564 98.65C61.8684 98.286 61.4577 97.7633 61.2244 97.082L62.3304 96.452C62.461 96.928 62.713 97.292 63.0864 97.544C63.4597 97.7867 63.917 97.908 64.4584 97.908C65.0744 97.908 65.5737 97.7493 65.9564 97.432C66.339 97.1147 66.5304 96.6713 66.5304 96.102C66.5304 95.5327 66.339 95.0893 65.9564 94.772C65.5737 94.4453 65.0837 94.282 64.4864 94.282H61.7144L62.0784 89.2H67.4404V90.418H63.2544L63.0864 93.022H64.5144ZM40.6242 108V115H39.4342V109.918L37.2082 113.502H37.0542L34.8282 109.918V115H33.6242V108H34.9262L37.1242 111.542L39.3222 108H40.6242ZM47.0756 108V109.176H43.7016V115H42.4836V108H47.0756ZM48.4797 116.4H47.7517L53.3517 103.8H54.0797L48.4797 116.4ZM61.3782 108V115H60.1602V109.176H57.4022V112.032C57.4022 113.18 57.1689 113.983 56.7022 114.44C56.2449 114.888 55.5962 115.075 54.7562 115V113.852C55.2322 113.917 55.5869 113.815 55.8202 113.544C56.0629 113.264 56.1842 112.751 56.1842 112.004V108H61.3782Z" fill="#959595"/>
</svg>
