<svg width="96" height="148" viewBox="0 0 96 148" fill="none" xmlns="http://www.w3.org/2000/svg">
<path d="M52.6906 3.00009L52.6905 2.99996C51.5615 1.43173 49.75 0.5 47.8228 0.5C45.8956 0.5 44.0841 1.43173 42.9551 2.99996L42.955 3.00009C40.761 6.04949 30.1553 24.3177 20.1058 44.8104C15.0778 55.0633 10.1813 65.8884 6.5407 75.6614C2.90682 85.4161 0.5 94.1839 0.5 100.297C0.5 126.562 21.7355 147.171 47.8228 147.171C73.9101 147.171 95.1456 126.562 95.1456 100.297C95.1456 94.1839 92.7388 85.4161 89.1049 75.6614C85.4642 65.8884 80.5678 55.0633 75.5398 44.8104C65.4903 24.3177 54.8846 6.04949 52.6906 3.00009ZM47.8228 135.085C28.3455 135.085 12.5171 119.877 12.5171 100.297C12.5171 96.5418 13.9185 90.6129 16.2598 83.4857C18.5951 76.3767 21.8464 68.1312 25.506 59.768C32.674 43.3874 41.3891 26.5992 47.8228 17.05C54.2565 26.5992 62.9716 43.3874 70.1395 59.768C73.7991 68.1312 77.0504 76.3767 79.3858 83.4857C81.7271 90.6129 83.1285 96.5418 83.1285 100.297C83.1285 119.877 67.3001 135.085 47.8228 135.085Z" fill="#E8E8E8" stroke="white"/>
<path d="M49.4721 15.0293L47.8228 12.6248L46.1735 15.0293C39.5739 24.6508 30.5639 41.9733 23.2157 58.7658C19.5356 67.1758 16.2522 75.4986 13.8847 82.7055C11.5411 89.8396 10.0171 96.1046 10.0171 100.297C10.0171 121.311 27.0184 137.585 47.8228 137.585C68.6272 137.585 85.6285 121.311 85.6285 100.297C85.6285 96.1046 84.1045 89.8396 81.7609 82.7055C79.3934 75.4986 76.11 67.1758 72.4299 58.7658C65.0817 41.9733 56.0716 24.6508 49.4721 15.0293ZM47.8228 3C48.9412 3 49.9994 3.54112 50.6613 4.46017C52.7233 7.32615 63.2517 25.4308 73.2952 45.9112C78.3041 56.1253 83.1616 66.8687 86.7622 76.5341C90.3899 86.2722 92.6456 94.6715 92.6456 100.297C92.6456 125.144 72.5667 144.671 47.8228 144.671C23.0789 144.671 3 125.144 3 100.297C3 94.6715 5.25572 86.2722 8.88342 76.5341C12.484 66.8687 17.3414 56.1253 22.3504 45.9112C32.3939 25.4308 42.9223 7.32615 44.9843 4.46017C45.6462 3.54112 46.7044 3 47.8228 3Z" fill="#E8E8E8" stroke="white" stroke-width="4"/>
<mask id="mask0" mask-type="alpha" maskUnits="userSpaceOnUse" x="10" y="13" width="76" height="125">
<path d="M47.6836 137.5C27.2718 137.5 10.6836 121.572 10.6836 101.065C10.6836 97.1302 12.1524 90.9214 14.6045 83.4614C17.0507 76.0196 20.4561 67.3883 24.2891 58.6342C31.8037 41.4716 40.9424 23.8806 47.6836 13.8888C54.4248 23.8806 63.5634 41.4716 71.0781 58.6342C74.9111 67.3883 78.3165 76.0196 80.7627 83.4614C83.2148 90.9214 84.6836 97.1302 84.6836 101.065C84.6836 121.572 68.0954 137.5 47.6836 137.5Z" fill="white" stroke="black"/>
</mask>
<g mask="url(#mask0)">
<path d="M18.2275 61.4129C39.117 42.5312 37.6364 76.9982 76.2622 50.446C85.5994 44.0274 98.8909 108.731 82.2745 126.163C62.9913 146.393 43.2293 151.91 23.1291 134.893C4.54099 119.156 3.74238 74.5058 18.2275 61.4129Z" fill="#E8E8E8"/>
</g>
<path d="M48.1836 141C25.5279 141 7.18359 123.838 7.18359 101.815C7.18359 97.6186 8.80417 90.9283 11.5503 82.8127C14.2837 74.7346 18.0915 65.3584 22.3804 55.8428C30.6598 37.4739 40.693 18.6713 48.1836 7.75066C55.6742 18.6713 65.7074 37.4739 73.9867 55.8428C78.2757 65.3584 82.0835 74.7346 84.8169 82.8127C87.563 90.9283 89.1836 97.6186 89.1836 101.815C89.1836 123.838 70.8393 141 48.1836 141Z" stroke="#E8E8E8" stroke-width="2"/>
<path d="M37.4283 89.2H38.5483V99H37.2603V90.6L35.1743 91.216L34.8523 90.096L37.4283 89.2ZM44.1965 95.29V94.114H49.3065V95.29H44.1965ZM58.2756 93.218C59.0222 93.358 59.6336 93.68 60.1096 94.184C60.5856 94.688 60.8236 95.3273 60.8236 96.102C60.8236 97.054 60.4969 97.8053 59.8436 98.356C59.1902 98.9067 58.3969 99.182 57.4636 99.182C56.7169 99.182 56.0542 99.014 55.4756 98.678C54.8969 98.3327 54.4862 97.838 54.2436 97.194L55.3356 96.55C55.6249 97.4553 56.3342 97.908 57.4636 97.908C58.0702 97.908 58.5649 97.7493 58.9476 97.432C59.3302 97.1147 59.5216 96.6713 59.5216 96.102C59.5216 95.5327 59.3302 95.0893 58.9476 94.772C58.5649 94.4453 58.0702 94.282 57.4636 94.282H57.1276L56.6096 93.484L58.8776 90.418H54.5236V89.2H60.4036V90.348L58.2756 93.218ZM41.1242 108V115H39.9342V109.918L37.7082 113.502H37.5542L35.3282 109.918V115H34.1242V108H35.4262L37.6242 111.542L39.8222 108H41.1242ZM47.5756 108V109.176H44.2016V115H42.9836V108H47.5756ZM48.9797 116.4H48.2517L53.8517 103.8H54.5797L48.9797 116.4ZM61.8782 108V115H60.6602V109.176H57.9022V112.032C57.9022 113.18 57.6689 113.983 57.2022 114.44C56.7449 114.888 56.0962 115.075 55.2562 115V113.852C55.7322 113.917 56.0869 113.815 56.3202 113.544C56.5629 113.264 56.6842 112.751 56.6842 112.004V108H61.8782Z" fill="#959595"/>
</svg>
