<svg width="97" height="148" viewBox="0 0 97 148" fill="none" xmlns="http://www.w3.org/2000/svg">
<path d="M53.507 3.00009L53.5069 2.99996C52.3779 1.43173 50.5664 0.5 48.6392 0.5C46.712 0.5 44.9005 1.43173 43.7715 2.99996L43.7714 3.00009C41.5774 6.04949 30.9717 24.3177 20.9222 44.8104C15.8942 55.0633 10.9978 65.8884 7.3571 75.6614C3.72323 85.4161 1.31641 94.1839 1.31641 100.297C1.31641 126.562 22.5519 147.171 48.6392 147.171C74.7265 147.171 95.962 126.562 95.962 100.297C95.962 94.1839 93.5552 85.4161 89.9213 75.6614C86.2806 65.8884 81.3842 55.0633 76.3562 44.8104C66.3067 24.3177 55.701 6.04949 53.507 3.00009ZM48.6392 135.085C29.1619 135.085 13.3335 119.877 13.3335 100.297C13.3335 96.5418 14.7349 90.6129 17.0762 83.4857C19.4116 76.3767 22.6628 68.1312 26.3225 59.768C33.4904 43.3874 42.2055 26.5992 48.6392 17.05C55.0729 26.5992 63.788 43.3874 70.9559 59.768C74.6156 68.1312 77.8668 76.3767 80.2022 83.4857C82.5435 90.6129 83.9449 96.5418 83.9449 100.297C83.9449 119.877 68.1165 135.085 48.6392 135.085Z" fill="#E8E8E8" stroke="white"/>
<path d="M50.2885 15.0293L48.6392 12.6248L46.9899 15.0293C40.3904 24.6508 31.3803 41.9733 24.0321 58.7658C20.352 67.1758 17.0686 75.4986 14.7011 82.7055C12.3575 89.8396 10.8335 96.1046 10.8335 100.297C10.8335 121.311 27.8348 137.585 48.6392 137.585C69.4436 137.585 86.4449 121.311 86.4449 100.297C86.4449 96.1046 84.9209 89.8396 82.5773 82.7055C80.2098 75.4986 76.9264 67.1758 73.2463 58.7658C65.8981 41.9733 56.8881 24.6508 50.2885 15.0293ZM48.6392 3C49.7576 3 50.8158 3.54112 51.4777 4.46017C53.5397 7.32615 64.0681 25.4308 74.1116 45.9112C79.1206 56.1253 83.978 66.8687 87.5786 76.5341C91.2063 86.2722 93.462 94.6715 93.462 100.297C93.462 125.144 73.3831 144.671 48.6392 144.671C23.8953 144.671 3.81641 125.144 3.81641 100.297C3.81641 94.6715 6.07213 86.2722 9.69983 76.5341C13.3004 66.8687 18.1579 56.1253 23.1668 45.9112C33.2103 25.4308 43.7387 7.32615 45.8007 4.46017C46.4626 3.54112 47.5208 3 48.6392 3Z" fill="#E8E8E8" stroke="white" stroke-width="4"/>
<mask id="mask0" mask-type="alpha" maskUnits="userSpaceOnUse" x="11" y="13" width="75" height="125">
<path d="M48.5 137.5C28.0882 137.5 11.5 121.572 11.5 101.065C11.5 97.1302 12.9688 90.9214 15.4209 83.4614C17.8671 76.0196 21.2725 67.3883 25.1055 58.6342C32.6201 41.4716 41.7588 23.8806 48.5 13.8888C55.2412 23.8806 64.3798 41.4716 71.8945 58.6342C75.7275 67.3883 79.1329 76.0196 81.5791 83.4614C84.0312 90.9214 85.5 97.1302 85.5 101.065C85.5 121.572 68.9118 137.5 48.5 137.5Z" fill="white" stroke="black"/>
</mask>
<g mask="url(#mask0)">
<path d="M19.0439 61.4129C39.9334 42.5312 38.4529 76.9982 77.0786 50.446C86.4158 44.0274 99.7073 108.731 83.0909 126.163C63.8077 146.393 44.0457 151.91 23.9455 134.893C5.35739 119.156 4.55879 74.5058 19.0439 61.4129Z" fill="#E8E8E8"/>
</g>
<path d="M49 141C26.3443 141 8 123.838 8 101.815C8 97.6186 9.62058 90.9283 12.3667 82.8127C15.1001 74.7346 18.9079 65.3584 23.1968 55.8428C31.4762 37.4739 41.5094 18.6713 49 7.75066C56.4906 18.6713 66.5238 37.4739 74.8032 55.8428C79.0921 65.3584 82.8999 74.7346 85.6333 82.8127C88.3794 90.9283 90 97.6186 90 101.815C90 123.838 71.6557 141 49 141Z" stroke="#E8E8E8" stroke-width="2"/>
<path d="M34.4435 101V99.936L37.9015 96.408C38.8255 95.484 39.2875 94.6907 39.2875 94.028C39.2875 93.4773 39.1195 93.048 38.7835 92.74C38.4475 92.432 38.0368 92.278 37.5515 92.278C36.6275 92.278 35.9555 92.7167 35.5355 93.594L34.4435 92.95C34.7515 92.3153 35.1761 91.8347 35.7175 91.508C36.2681 91.1813 36.8748 91.018 37.5375 91.018C38.3588 91.018 39.0728 91.2887 39.6795 91.83C40.2861 92.3713 40.5895 93.0993 40.5895 94.014C40.5895 95.0033 40.0061 96.0813 38.8395 97.248L36.3335 99.74H40.7715V101H34.4435ZM45.8723 97.29V96.114H50.9823V97.29H45.8723ZM59.2933 94.588C60.2733 94.588 61.0807 94.896 61.7153 95.512C62.35 96.1187 62.6673 96.9073 62.6673 97.878C62.6673 98.8487 62.35 99.642 61.7153 100.258C61.0807 100.874 60.2733 101.182 59.2933 101.182C58.304 101.182 57.492 100.874 56.8573 100.258C56.232 99.642 55.9193 98.8487 55.9193 97.878C55.9193 97.122 56.1153 96.4687 56.5073 95.918L59.6573 91.2H61.1413L58.8313 94.616C59.0367 94.5973 59.1907 94.588 59.2933 94.588ZM57.7813 99.376C58.1733 99.7493 58.6773 99.936 59.2933 99.936C59.9093 99.936 60.4087 99.7493 60.7913 99.376C61.1833 98.9933 61.3793 98.494 61.3793 97.878C61.3793 97.262 61.1833 96.7673 60.7913 96.394C60.4087 96.0207 59.9093 95.834 59.2933 95.834C58.668 95.834 58.164 96.0207 57.7813 96.394C57.3987 96.7673 57.2073 97.262 57.2073 97.878C57.2073 98.494 57.3987 98.9933 57.7813 99.376ZM41.6242 110V117H40.4342V111.918L38.2082 115.502H38.0542L35.8282 111.918V117H34.6242V110H35.9262L38.1242 113.542L40.3222 110H41.6242ZM48.0756 110V111.176H44.7016V117H43.4836V110H48.0756ZM49.4797 118.4H48.7517L54.3517 105.8H55.0797L49.4797 118.4ZM62.3782 110V117H61.1602V111.176H58.4022V114.032C58.4022 115.18 58.1689 115.983 57.7022 116.44C57.2449 116.888 56.5962 117.075 55.7562 117V115.852C56.2322 115.917 56.5869 115.815 56.8202 115.544C57.0629 115.264 57.1842 114.751 57.1842 114.004V110H62.3782Z" fill="#959595"/>
</svg>
