<svg width="96" height="148" viewBox="0 0 96 148" fill="none" xmlns="http://www.w3.org/2000/svg">
<path d="M52.6906 3.00009L52.6905 2.99996C51.5615 1.43173 49.75 0.5 47.8228 0.5C45.8956 0.5 44.0841 1.43173 42.9551 2.99996L42.955 3.00009C40.761 6.04949 30.1553 24.3177 20.1058 44.8104C15.0778 55.0633 10.1813 65.8884 6.5407 75.6614C2.90682 85.4161 0.5 94.1839 0.5 100.297C0.5 126.562 21.7355 147.171 47.8228 147.171C73.9101 147.171 95.1456 126.562 95.1456 100.297C95.1456 94.1839 92.7388 85.4161 89.1049 75.6614C85.4642 65.8884 80.5678 55.0633 75.5398 44.8104C65.4903 24.3177 54.8846 6.04949 52.6906 3.00009ZM47.8228 135.085C28.3455 135.085 12.5171 119.877 12.5171 100.297C12.5171 96.5418 13.9185 90.6129 16.2598 83.4857C18.5951 76.3767 21.8464 68.1312 25.506 59.768C32.674 43.3874 41.3891 26.5992 47.8228 17.05C54.2565 26.5992 62.9716 43.3874 70.1395 59.768C73.7991 68.1312 77.0504 76.3767 79.3858 83.4857C81.7271 90.6129 83.1285 96.5418 83.1285 100.297C83.1285 119.877 67.3001 135.085 47.8228 135.085Z" fill="#E8E8E8" stroke="white"/>
<path d="M49.4721 15.0293L47.8228 12.6248L46.1735 15.0293C39.5739 24.6508 30.5639 41.9733 23.2157 58.7658C19.5356 67.1758 16.2522 75.4986 13.8847 82.7055C11.5411 89.8396 10.0171 96.1046 10.0171 100.297C10.0171 121.311 27.0184 137.585 47.8228 137.585C68.6272 137.585 85.6285 121.311 85.6285 100.297C85.6285 96.1046 84.1045 89.8396 81.7609 82.7055C79.3934 75.4986 76.11 67.1758 72.4299 58.7658C65.0817 41.9733 56.0716 24.6508 49.4721 15.0293ZM47.8228 3C48.9412 3 49.9994 3.54112 50.6613 4.46017C52.7233 7.32615 63.2517 25.4308 73.2952 45.9112C78.3041 56.1253 83.1616 66.8687 86.7622 76.5341C90.3899 86.2722 92.6456 94.6715 92.6456 100.297C92.6456 125.144 72.5667 144.671 47.8228 144.671C23.0789 144.671 3 125.144 3 100.297C3 94.6715 5.25572 86.2722 8.88342 76.5341C12.484 66.8687 17.3414 56.1253 22.3504 45.9112C32.3939 25.4308 42.9223 7.32615 44.9843 4.46017C45.6462 3.54112 46.7044 3 47.8228 3Z" fill="#E8E8E8" stroke="white" stroke-width="4"/>
<mask id="mask0" mask-type="alpha" maskUnits="userSpaceOnUse" x="10" y="13" width="76" height="125">
<path d="M47.6836 137.5C27.2718 137.5 10.6836 121.572 10.6836 101.065C10.6836 97.1302 12.1524 90.9214 14.6045 83.4614C17.0507 76.0196 20.4561 67.3883 24.2891 58.6342C31.8037 41.4716 40.9424 23.8806 47.6836 13.8888C54.4248 23.8806 63.5634 41.4716 71.0781 58.6342C74.9111 67.3883 78.3165 76.0196 80.7627 83.4614C83.2148 90.9214 84.6836 97.1302 84.6836 101.065C84.6836 121.572 68.0954 137.5 47.6836 137.5Z" fill="white" stroke="black"/>
</mask>
<g mask="url(#mask0)">
<path d="M18.2275 61.4129C39.117 42.5312 37.6364 76.9982 76.2622 50.446C85.5994 44.0274 98.8909 108.731 82.2745 126.163C62.9913 146.393 43.2293 151.91 23.1291 134.893C4.54099 119.156 3.74238 74.5058 18.2275 61.4129Z" fill="#E8E8E8"/>
</g>
<path d="M48.1836 141C25.5279 141 7.18359 123.838 7.18359 101.815C7.18359 97.6186 8.80417 90.9283 11.5503 82.8127C14.2837 74.7346 18.0915 65.3584 22.3804 55.8428C30.6598 37.4739 40.693 18.6713 48.1836 7.75066C55.6742 18.6713 65.7074 37.4739 73.9867 55.8428C78.2757 65.3584 82.0835 74.7346 84.8169 82.8127C87.563 90.9283 89.1836 97.6186 89.1836 101.815C89.1836 123.838 70.8393 141 48.1836 141Z" stroke="#E8E8E8" stroke-width="2"/>
<path d="M25.0075 99.796C24.3449 100.72 23.4162 101.182 22.2215 101.182C21.0269 101.182 20.0982 100.72 19.4355 99.796C18.7729 98.872 18.4415 97.64 18.4415 96.1C18.4415 94.56 18.7729 93.328 19.4355 92.404C20.0982 91.48 21.0269 91.018 22.2215 91.018C23.4162 91.018 24.3449 91.48 25.0075 92.404C25.6702 93.328 26.0015 94.56 26.0015 96.1C26.0015 97.64 25.6702 98.872 25.0075 99.796ZM20.3875 98.914C20.8169 99.5767 21.4282 99.908 22.2215 99.908C23.0149 99.908 23.6262 99.5767 24.0555 98.914C24.4942 98.2513 24.7135 97.3133 24.7135 96.1C24.7135 94.8867 24.4942 93.9487 24.0555 93.286C23.6262 92.614 23.0149 92.278 22.2215 92.278C21.4282 92.278 20.8169 92.6093 20.3875 93.272C19.9582 93.9347 19.7435 94.8773 19.7435 96.1C19.7435 97.3133 19.9582 98.2513 20.3875 98.914ZM28.9501 99.558L28.0401 102.96H26.9901L27.5501 99.558H28.9501ZM36.5192 99.796C35.8566 100.72 34.9279 101.182 33.7332 101.182C32.5386 101.182 31.6099 100.72 30.9472 99.796C30.2846 98.872 29.9532 97.64 29.9532 96.1C29.9532 94.56 30.2846 93.328 30.9472 92.404C31.6099 91.48 32.5386 91.018 33.7332 91.018C34.9279 91.018 35.8566 91.48 36.5192 92.404C37.1819 93.328 37.5132 94.56 37.5132 96.1C37.5132 97.64 37.1819 98.872 36.5192 99.796ZM31.8992 98.914C32.3286 99.5767 32.9399 99.908 33.7332 99.908C34.5266 99.908 35.1379 99.5767 35.5672 98.914C36.0059 98.2513 36.2252 97.3133 36.2252 96.1C36.2252 94.8867 36.0059 93.9487 35.5672 93.286C35.1379 92.614 34.5266 92.278 33.7332 92.278C32.9399 92.278 32.3286 92.6093 31.8992 93.272C31.4699 93.9347 31.2552 94.8773 31.2552 96.1C31.2552 97.3133 31.4699 98.2513 31.8992 98.914ZM41.9076 94.588C42.8876 94.588 43.6949 94.896 44.3296 95.512C44.9643 96.1187 45.2816 96.9073 45.2816 97.878C45.2816 98.8487 44.9643 99.642 44.3296 100.258C43.6949 100.874 42.8876 101.182 41.9076 101.182C40.9183 101.182 40.1063 100.874 39.4716 100.258C38.8463 99.642 38.5336 98.8487 38.5336 97.878C38.5336 97.122 38.7296 96.4687 39.1216 95.918L42.2716 91.2H43.7556L41.4456 94.616C41.6509 94.5973 41.8049 94.588 41.9076 94.588ZM40.3956 99.376C40.7876 99.7493 41.2916 99.936 41.9076 99.936C42.5236 99.936 43.0229 99.7493 43.4056 99.376C43.7976 98.9933 43.9936 98.494 43.9936 97.878C43.9936 97.262 43.7976 96.7673 43.4056 96.394C43.0229 96.0207 42.5236 95.834 41.9076 95.834C41.2823 95.834 40.7783 96.0207 40.3956 96.394C40.0129 96.7673 39.8216 97.262 39.8216 97.878C39.8216 98.494 40.0129 98.9933 40.3956 99.376ZM46.7248 97.29V96.114H51.8348V97.29H46.7248ZM60.0759 99.796C59.4132 100.72 58.4845 101.182 57.2899 101.182C56.0952 101.182 55.1665 100.72 54.5039 99.796C53.8412 98.872 53.5099 97.64 53.5099 96.1C53.5099 94.56 53.8412 93.328 54.5039 92.404C55.1665 91.48 56.0952 91.018 57.2899 91.018C58.4845 91.018 59.4132 91.48 60.0759 92.404C60.7385 93.328 61.0699 94.56 61.0699 96.1C61.0699 97.64 60.7385 98.872 60.0759 99.796ZM55.4559 98.914C55.8852 99.5767 56.4965 99.908 57.2899 99.908C58.0832 99.908 58.6945 99.5767 59.1239 98.914C59.5625 98.2513 59.7819 97.3133 59.7819 96.1C59.7819 94.8867 59.5625 93.9487 59.1239 93.286C58.6945 92.614 58.0832 92.278 57.2899 92.278C56.4965 92.278 55.8852 92.6093 55.4559 93.272C55.0265 93.9347 54.8119 94.8773 54.8119 96.1C54.8119 97.3133 55.0265 98.2513 55.4559 98.914ZM64.0184 99.558L63.1084 102.96H62.0584L62.6184 99.558H64.0184ZM67.5874 91.2H68.7074V101H67.4194V92.6L65.3334 93.216L65.0114 92.096L67.5874 91.2ZM70.3097 101V99.936L73.7677 96.408C74.6917 95.484 75.1537 94.6907 75.1537 94.028C75.1537 93.4773 74.9857 93.048 74.6497 92.74C74.3137 92.432 73.903 92.278 73.4177 92.278C72.4937 92.278 71.8217 92.7167 71.4017 93.594L70.3097 92.95C70.6177 92.3153 71.0423 91.8347 71.5837 91.508C72.1343 91.1813 72.741 91.018 73.4037 91.018C74.225 91.018 74.939 91.2887 75.5457 91.83C76.1523 92.3713 76.4557 93.0993 76.4557 94.014C76.4557 95.0033 75.8723 96.0813 74.7057 97.248L72.1997 99.74H76.6377V101H70.3097ZM42.6459 110V111.176H39.2719V117H38.0539V110H42.6459ZM44.05 118.4H43.322L48.922 105.8H49.65L44.05 118.4ZM56.9485 110V117H55.7305V111.176H52.9725V114.032C52.9725 115.18 52.7392 115.983 52.2725 116.44C51.8152 116.888 51.1665 117.075 50.3265 117V115.852C50.8025 115.917 51.1572 115.815 51.3905 115.544C51.6332 115.264 51.7545 114.751 51.7545 114.004V110H56.9485Z" fill="#959595"/>
</svg>
