<svg width="96" height="148" viewBox="0 0 96 148" fill="none" xmlns="http://www.w3.org/2000/svg">
<path d="M52.6906 3.00009L52.6905 2.99996C51.5615 1.43173 49.75 0.5 47.8228 0.5C45.8956 0.5 44.0841 1.43173 42.9551 2.99996L42.955 3.00009C40.761 6.04949 30.1553 24.3177 20.1058 44.8104C15.0778 55.0633 10.1813 65.8884 6.5407 75.6614C2.90682 85.4161 0.5 94.1839 0.5 100.297C0.5 126.562 21.7355 147.171 47.8228 147.171C73.9101 147.171 95.1456 126.562 95.1456 100.297C95.1456 94.1839 92.7388 85.4161 89.1049 75.6614C85.4642 65.8884 80.5678 55.0633 75.5398 44.8104C65.4903 24.3177 54.8846 6.04949 52.6906 3.00009ZM47.8228 135.085C28.3455 135.085 12.5171 119.877 12.5171 100.297C12.5171 96.5418 13.9185 90.6129 16.2598 83.4857C18.5951 76.3767 21.8464 68.1312 25.506 59.768C32.674 43.3874 41.3891 26.5992 47.8228 17.05C54.2565 26.5992 62.9716 43.3874 70.1395 59.768C73.7991 68.1312 77.0504 76.3767 79.3858 83.4857C81.7271 90.6129 83.1285 96.5418 83.1285 100.297C83.1285 119.877 67.3001 135.085 47.8228 135.085Z" fill="#E8E8E8" stroke="white"/>
<path d="M49.4721 15.0293L47.8228 12.6248L46.1735 15.0293C39.5739 24.6508 30.5639 41.9733 23.2157 58.7658C19.5356 67.1758 16.2522 75.4986 13.8847 82.7055C11.5411 89.8396 10.0171 96.1046 10.0171 100.297C10.0171 121.311 27.0184 137.585 47.8228 137.585C68.6272 137.585 85.6285 121.311 85.6285 100.297C85.6285 96.1046 84.1045 89.8396 81.7609 82.7055C79.3934 75.4986 76.11 67.1758 72.4299 58.7658C65.0817 41.9733 56.0716 24.6508 49.4721 15.0293ZM47.8228 3C48.9412 3 49.9994 3.54112 50.6613 4.46017C52.7233 7.32615 63.2517 25.4308 73.2952 45.9112C78.3041 56.1253 83.1616 66.8687 86.7622 76.5341C90.3899 86.2722 92.6456 94.6715 92.6456 100.297C92.6456 125.144 72.5667 144.671 47.8228 144.671C23.0789 144.671 3 125.144 3 100.297C3 94.6715 5.25572 86.2722 8.88342 76.5341C12.484 66.8687 17.3414 56.1253 22.3504 45.9112C32.3939 25.4308 42.9223 7.32615 44.9843 4.46017C45.6462 3.54112 46.7044 3 47.8228 3Z" fill="#E8E8E8" stroke="white" stroke-width="4"/>
<mask id="mask0" mask-type="alpha" maskUnits="userSpaceOnUse" x="10" y="13" width="76" height="125">
<path d="M47.6836 137.5C27.2718 137.5 10.6836 121.572 10.6836 101.065C10.6836 97.1302 12.1524 90.9214 14.6045 83.4614C17.0507 76.0196 20.4561 67.3883 24.2891 58.6342C31.8037 41.4716 40.9424 23.8806 47.6836 13.8888C54.4248 23.8806 63.5634 41.4716 71.0781 58.6342C74.9111 67.3883 78.3165 76.0196 80.7627 83.4614C83.2148 90.9214 84.6836 97.1302 84.6836 101.065C84.6836 121.572 68.0954 137.5 47.6836 137.5Z" fill="white" stroke="black"/>
</mask>
<g mask="url(#mask0)">
<path d="M18.2275 61.4129C39.117 42.5312 37.6364 76.9982 76.2622 50.446C85.5994 44.0274 98.8909 108.731 82.2745 126.163C62.9913 146.393 43.2293 151.91 23.1291 134.893C4.54099 119.156 3.74238 74.5058 18.2275 61.4129Z" fill="#E8E8E8"/>
</g>
<path d="M48.1836 141C25.5279 141 7.18359 123.838 7.18359 101.815C7.18359 97.6186 8.80417 90.9283 11.5503 82.8127C14.2837 74.7346 18.0915 65.3584 22.3804 55.8428C30.6598 37.4739 40.693 18.6713 48.1836 7.75066C55.6742 18.6713 65.7074 37.4739 73.9867 55.8428C78.2757 65.3584 82.0835 74.7346 84.8169 82.8127C87.563 90.9283 89.1836 97.6186 89.1836 101.815C89.1836 123.838 70.8393 141 48.1836 141Z" stroke="#E8E8E8" stroke-width="2"/>
<path d="M37.4829 91.2H38.6029V101H37.3149V92.6L35.2289 93.216L34.9069 92.096L37.4829 91.2ZM44.2512 97.29V96.114H49.3612V97.29H44.2512ZM54.4103 101V99.936L57.8683 96.408C58.7923 95.484 59.2543 94.6907 59.2543 94.028C59.2543 93.4773 59.0863 93.048 58.7503 92.74C58.4143 92.432 58.0036 92.278 57.5183 92.278C56.5943 92.278 55.9223 92.7167 55.5023 93.594L54.4103 92.95C54.7183 92.3153 55.1429 91.8347 55.6843 91.508C56.2349 91.1813 56.8416 91.018 57.5042 91.018C58.3256 91.018 59.0396 91.2887 59.6463 91.83C60.2529 92.3713 60.5563 93.0993 60.5563 94.014C60.5563 95.0033 59.9729 96.0813 58.8063 97.248L56.3003 99.74H60.7383V101H54.4103ZM26.7004 110V117H25.5104V111.918L23.2844 115.502H23.1304L20.9044 111.918V117H19.7004V110H21.0024L23.2004 113.542L25.3984 110H26.7004ZM33.1517 110V111.176H29.7777V117H28.5597V110H33.1517ZM34.3459 113.29V112.114H39.4559V113.29H34.3459ZM43.945 109.818C45.009 109.818 45.8676 110.163 46.521 110.854C47.1836 111.545 47.515 112.427 47.515 113.5C47.515 114.564 47.1836 115.446 46.521 116.146C45.8583 116.837 44.995 117.182 43.931 117.182C43.1843 117.182 42.531 117.019 41.971 116.692C41.411 116.356 41.005 115.903 40.753 115.334L41.789 114.732C41.9383 115.115 42.195 115.423 42.559 115.656C42.9323 115.889 43.3896 116.006 43.931 116.006C44.5376 116.006 45.0463 115.829 45.457 115.474C45.8676 115.119 46.129 114.653 46.241 114.074H43.119V112.926H46.241C46.129 112.347 45.8723 111.881 45.471 111.526C45.0696 111.171 44.5656 110.994 43.959 110.994C43.4643 110.994 43.0303 111.111 42.657 111.344C42.293 111.568 42.0223 111.871 41.845 112.254L40.795 111.652C41.075 111.083 41.495 110.635 42.055 110.308C42.615 109.981 43.245 109.818 43.945 109.818ZM54.8802 117H53.3682L50.1762 113.682V117H48.9582V110H50.1762V113.094L53.2002 110H54.7682L51.4222 113.388L54.8802 117ZM60.6749 113.402C61.3935 113.701 61.7529 114.242 61.7529 115.026C61.7529 115.605 61.5569 116.081 61.1649 116.454C60.7822 116.818 60.2315 117 59.5129 117H56.0129V110H59.2329C59.9329 110 60.4742 110.177 60.8569 110.532C61.2395 110.877 61.4309 111.335 61.4309 111.904C61.4309 112.576 61.1789 113.075 60.6749 113.402ZM59.1769 111.092H57.2029V112.926H59.1769C59.8862 112.926 60.2409 112.613 60.2409 111.988C60.2409 111.391 59.8862 111.092 59.1769 111.092ZM59.4429 115.894C59.7975 115.894 60.0682 115.81 60.2549 115.642C60.4509 115.474 60.5489 115.236 60.5489 114.928C60.5489 114.639 60.4509 114.415 60.2549 114.256C60.0682 114.088 59.7975 114.004 59.4429 114.004H57.2029V115.894H59.4429ZM63.4036 118.4H62.6756L68.2756 105.8H69.0036L63.4036 118.4ZM76.302 110V117H75.084V111.176H72.326V114.032C72.326 115.18 72.0927 115.983 71.626 116.44C71.1687 116.888 70.52 117.075 69.68 117V115.852C70.156 115.917 70.5107 115.815 70.744 115.544C70.9867 115.264 71.108 114.751 71.108 114.004V110H76.302Z" fill="#959595"/>
</svg>
