<svg width="96" height="148" viewBox="0 0 96 148" fill="none" xmlns="http://www.w3.org/2000/svg">
<path d="M52.6906 3.00009L52.6905 2.99996C51.5615 1.43173 49.75 0.5 47.8228 0.5C45.8956 0.5 44.0841 1.43173 42.9551 2.99996L42.955 3.00009C40.761 6.04949 30.1553 24.3177 20.1058 44.8104C15.0778 55.0633 10.1813 65.8884 6.5407 75.6614C2.90682 85.4161 0.5 94.1839 0.5 100.297C0.5 126.562 21.7355 147.171 47.8228 147.171C73.9101 147.171 95.1456 126.562 95.1456 100.297C95.1456 94.1839 92.7388 85.4161 89.1049 75.6614C85.4642 65.8884 80.5678 55.0633 75.5398 44.8104C65.4903 24.3177 54.8846 6.04949 52.6906 3.00009ZM47.8228 135.085C28.3455 135.085 12.5171 119.877 12.5171 100.297C12.5171 96.5418 13.9185 90.6129 16.2598 83.4857C18.5951 76.3767 21.8464 68.1312 25.506 59.768C32.674 43.3874 41.3891 26.5992 47.8228 17.05C54.2565 26.5992 62.9716 43.3874 70.1395 59.768C73.7991 68.1312 77.0504 76.3767 79.3858 83.4857C81.7271 90.6129 83.1285 96.5418 83.1285 100.297C83.1285 119.877 67.3001 135.085 47.8228 135.085Z" fill="#E8E8E8" stroke="white"/>
<path d="M49.4721 15.0293L47.8228 12.6248L46.1735 15.0293C39.5739 24.6508 30.5639 41.9733 23.2157 58.7658C19.5356 67.1758 16.2522 75.4986 13.8847 82.7055C11.5411 89.8396 10.0171 96.1046 10.0171 100.297C10.0171 121.311 27.0184 137.585 47.8228 137.585C68.6272 137.585 85.6285 121.311 85.6285 100.297C85.6285 96.1046 84.1045 89.8396 81.7609 82.7055C79.3934 75.4986 76.11 67.1758 72.4299 58.7658C65.0817 41.9733 56.0716 24.6508 49.4721 15.0293ZM47.8228 3C48.9412 3 49.9994 3.54112 50.6613 4.46017C52.7233 7.32615 63.2517 25.4308 73.2952 45.9112C78.3041 56.1253 83.1616 66.8687 86.7622 76.5341C90.3899 86.2722 92.6456 94.6715 92.6456 100.297C92.6456 125.144 72.5667 144.671 47.8228 144.671C23.0789 144.671 3 125.144 3 100.297C3 94.6715 5.25572 86.2722 8.88342 76.5341C12.484 66.8687 17.3414 56.1253 22.3504 45.9112C32.3939 25.4308 42.9223 7.32615 44.9843 4.46017C45.6462 3.54112 46.7044 3 47.8228 3Z" fill="#E8E8E8" stroke="white" stroke-width="4"/>
<mask id="mask0" mask-type="alpha" maskUnits="userSpaceOnUse" x="10" y="13" width="76" height="125">
<path d="M47.6836 137.5C27.2718 137.5 10.6836 121.572 10.6836 101.065C10.6836 97.1302 12.1524 90.9214 14.6045 83.4614C17.0507 76.0196 20.4561 67.3883 24.2891 58.6342C31.8037 41.4716 40.9424 23.8806 47.6836 13.8888C54.4248 23.8806 63.5634 41.4716 71.0781 58.6342C74.9111 67.3883 78.3165 76.0196 80.7627 83.4614C83.2148 90.9214 84.6836 97.1302 84.6836 101.065C84.6836 121.572 68.0954 137.5 47.6836 137.5Z" fill="white" stroke="black"/>
</mask>
<g mask="url(#mask0)">
<path d="M18.2275 61.4129C39.117 42.5312 37.6364 76.9982 76.2622 50.446C85.5994 44.0274 98.8909 108.731 82.2745 126.163C62.9913 146.393 43.2293 151.91 23.1291 134.893C4.54099 119.156 3.74238 74.5058 18.2275 61.4129Z" fill="#E8E8E8"/>
</g>
<path d="M48.1836 141C25.5279 141 7.18359 123.838 7.18359 101.815C7.18359 97.6186 8.80417 90.9283 11.5503 82.8127C14.2837 74.7346 18.0915 65.3584 22.3804 55.8428C30.6598 37.4739 40.693 18.6713 48.1836 7.75066C55.6742 18.6713 65.7074 37.4739 73.9867 55.8428C78.2757 65.3584 82.0835 74.7346 84.8169 82.8127C87.563 90.9283 89.1836 97.6186 89.1836 101.815C89.1836 123.838 70.8393 141 48.1836 141Z" stroke="#E8E8E8" stroke-width="2"/>
<path d="M25.2081 91.2H31.3261V92.362L27.7561 101H26.3981L29.9401 92.432H25.2081V91.2ZM32.4579 99.558L31.5479 102.96H30.4979L31.0579 99.558H32.4579ZM33.7589 101V99.936L37.2169 96.408C38.1409 95.484 38.6029 94.6907 38.6029 94.028C38.6029 93.4773 38.4349 93.048 38.0989 92.74C37.7629 92.432 37.3522 92.278 36.8669 92.278C35.9429 92.278 35.2709 92.7167 34.8509 93.594L33.7589 92.95C34.0669 92.3153 34.4915 91.8347 35.0329 91.508C35.5835 91.1813 36.1902 91.018 36.8529 91.018C37.6742 91.018 38.3882 91.2887 38.9949 91.83C39.6015 92.3713 39.9049 93.0993 39.9049 94.014C39.9049 95.0033 39.3215 96.0813 38.1549 97.248L35.6489 99.74H40.0869V101H33.7589ZM41.6877 97.29V96.114H46.7977V97.29H41.6877ZM57.0548 95.932C57.5308 96.1747 57.9041 96.5013 58.1748 96.912C58.4454 97.3227 58.5808 97.7893 58.5808 98.312C58.5808 99.208 58.2681 99.9127 57.6428 100.426C57.0174 100.93 56.2101 101.182 55.2208 101.182C54.2408 101.182 53.4381 100.93 52.8128 100.426C52.1874 99.9127 51.8748 99.208 51.8748 98.312C51.8748 97.7893 52.0101 97.3227 52.2808 96.912C52.5514 96.5013 52.9248 96.1747 53.4008 95.932C52.5981 95.428 52.1968 94.714 52.1968 93.79C52.1968 92.9033 52.4908 92.222 53.0788 91.746C53.6761 91.2607 54.3901 91.018 55.2208 91.018C56.0608 91.018 56.7748 91.2607 57.3628 91.746C57.9601 92.222 58.2588 92.9033 58.2588 93.79C58.2588 94.714 57.8574 95.428 57.0548 95.932ZM55.2208 92.264C54.7261 92.264 54.3108 92.3947 53.9748 92.656C53.6481 92.9173 53.4848 93.3047 53.4848 93.818C53.4848 94.3127 53.6528 94.7 53.9888 94.98C54.3248 95.2507 54.7354 95.386 55.2208 95.386C55.7061 95.386 56.1168 95.2507 56.4528 94.98C56.7888 94.7 56.9568 94.3127 56.9568 93.818C56.9568 93.3047 56.7934 92.9173 56.4668 92.656C56.1401 92.3947 55.7248 92.264 55.2208 92.264ZM55.2208 99.936C55.8461 99.936 56.3454 99.7913 56.7188 99.502C57.1014 99.2033 57.2928 98.7787 57.2928 98.228C57.2928 97.6867 57.1014 97.2713 56.7188 96.982C56.3454 96.6833 55.8461 96.534 55.2208 96.534C54.6048 96.534 54.1054 96.6833 53.7228 96.982C53.3494 97.2713 53.1628 97.6867 53.1628 98.228C53.1628 98.7787 53.3494 99.2033 53.7228 99.502C54.1054 99.7913 54.6048 99.936 55.2208 99.936ZM61.8524 99.558L60.9424 102.96H59.8924L60.4524 99.558H61.8524ZM69.4216 99.796C68.7589 100.72 67.8303 101.182 66.6356 101.182C65.4409 101.182 64.5123 100.72 63.8496 99.796C63.1869 98.872 62.8556 97.64 62.8556 96.1C62.8556 94.56 63.1869 93.328 63.8496 92.404C64.5123 91.48 65.4409 91.018 66.6356 91.018C67.8303 91.018 68.7589 91.48 69.4216 92.404C70.0843 93.328 70.4156 94.56 70.4156 96.1C70.4156 97.64 70.0843 98.872 69.4216 99.796ZM64.8016 98.914C65.2309 99.5767 65.8423 99.908 66.6356 99.908C67.4289 99.908 68.0403 99.5767 68.4696 98.914C68.9083 98.2513 69.1276 97.3133 69.1276 96.1C69.1276 94.8867 68.9083 93.9487 68.4696 93.286C68.0403 92.614 67.4289 92.278 66.6356 92.278C65.8423 92.278 65.2309 92.6093 64.8016 93.272C64.3723 93.9347 64.1576 94.8773 64.1576 96.1C64.1576 97.3133 64.3723 98.2513 64.8016 98.914ZM41.1242 110V117H39.9342V111.918L37.7082 115.502H37.5542L35.3282 111.918V117H34.1242V110H35.4262L37.6242 113.542L39.8222 110H41.1242ZM47.5756 110V111.176H44.2016V117H42.9836V110H47.5756ZM48.9797 118.4H48.2517L53.8517 105.8H54.5797L48.9797 118.4ZM61.8782 110V117H60.6602V111.176H57.9022V114.032C57.9022 115.18 57.6689 115.983 57.2022 116.44C56.7449 116.888 56.0962 117.075 55.2562 117V115.852C55.7322 115.917 56.0869 115.815 56.3202 115.544C56.5629 115.264 56.6842 114.751 56.6842 114.004V110H61.8782Z" fill="#959595"/>
</svg>
