<svg width="284" height="112" viewBox="0 0 284 112" fill="none" xmlns="http://www.w3.org/2000/svg">
<path d="M0 0.834513V38.2732C0 43.4775 0.863261 50.9718 7.91136 55.5845C11.9435 58.1374 16.2817 58.5647 20.587 58.5647H27.8427V51.3115H20.4231C18.0409 51.3115 14.6426 51.3115 11.6813 48.6709C8.28288 45.5593 7.97692 41.341 7.97692 38.2732V0.834513H0ZM67.7491 25.0705H39.0432C40.8571 14.7932 50.5277 8.08778 62.7882 8.08778H67.7928V0.834513H62.0014C41.2396 0.834513 30.7275 16.097 30.7275 29.727C30.7275 43.357 41.1849 58.5647 61.8484 58.5647H67.7928V51.3115H61.4332C48.8449 51.3115 40.1578 43.1379 39.0432 32.3237H67.7928L67.7491 25.0705ZM129.608 10.3996C125.476 5.99137 120.237 2.77847 114.441 1.09748C111.649 0.339376 108.767 -0.0293121 105.874 0.00181853C100.703 -0.0259327 95.5904 1.09668 90.904 3.28879C85.8845 5.65133 81.6281 9.38047 78.6199 14.0511C75.6117 18.7217 73.9729 24.1458 73.8903 29.7051C73.8903 46.14 88.3143 59.3755 105.011 59.3755C119.73 59.3755 135.225 48.901 135.225 30.8884V26.1004H106.148V33.3536H126.909C125.817 46.3153 114.889 52.188 105.055 52.188C99.1225 52.188 93.433 49.8251 89.2382 45.619C85.0434 41.4129 82.6867 35.7082 82.6867 29.7599C82.6867 23.8116 85.0434 18.1069 89.2382 13.9008C93.433 9.69473 99.1225 7.33177 105.055 7.33177C107.632 7.3059 110.195 7.71329 112.638 8.537C116.899 10.3583 120.831 12.8719 124.276 15.9765L129.608 10.3996ZM178.442 25.0705H149.704C151.518 14.7932 161.188 8.08778 173.46 8.08778H178.442V0.834513H172.662C151.835 0.834513 141.377 16.097 141.377 29.727C141.377 43.357 151.835 58.5647 172.498 58.5647H178.442V51.3115H172.083C159.495 51.3115 150.807 43.1379 149.693 32.3237H178.442V25.0705ZM194.429 58.5647V11.2433H194.626L215.453 52.8783C217.223 56.6145 218.786 59.4522 223.692 59.4522C229.855 59.4522 229.855 54.3245 229.855 51.0156V0.834513H221.846V47.2028H221.649L202.548 8.50412C199.882 3.14635 198.112 0.00181853 193.402 0.00181853C186.594 0.00181853 186.43 5.35959 186.43 9.27109V58.5757L194.429 58.5647ZM247.754 58.5647V8.08778H252.879C268.254 8.08778 275.684 19.1539 275.684 29.727C275.684 40.6836 268.101 51.3115 254.322 51.3115H251.163V58.5647H255.261C260.557 58.5221 265.742 57.0327 270.257 54.2566C274.772 51.4805 278.446 47.5228 280.886 42.8092C282.933 38.7461 284 34.2574 284 29.7051C284 25.1528 282.933 20.6642 280.886 16.601C273.63 2.80671 261.118 0.834513 251.939 0.834513H239.766V58.5647H247.754ZM58.6467 112H60.8322V84.6085C60.8322 81.3764 61.2474 76.9389 65.2686 74.4627C66.8586 73.5389 68.6775 73.0868 70.5137 73.1589C72.0023 73.1079 73.4807 73.4239 74.8191 74.0793C76.1222 74.6596 77.2172 75.6256 77.9574 76.8475C78.6976 78.0695 79.0477 79.4891 78.9605 80.9162C79.0366 82.7062 78.5637 84.4767 77.6055 85.9891C75.1469 89.3856 71.1257 89.5061 68.4703 89.5061H63.0067V91.6974H71.4426C73.7373 91.6974 77.4307 92.1576 79.6052 95.9705C80.3784 97.5306 80.7538 99.2584 80.698 101C80.7426 102.645 80.3664 104.274 79.6052 105.733C77.4198 109.601 73.4532 109.809 70.5465 109.809H62.963V112H71.8141C74.3601 112 79.4632 111.671 82.0639 106.083C82.7634 104.532 83.1141 102.845 83.091 101.142C83.1347 99.1104 82.6847 97.0986 81.7798 95.2802C81.1941 94.0248 80.3274 92.9217 79.2471 92.0571C78.1668 91.1924 76.902 90.5894 75.5512 90.295C76.7291 89.8479 77.791 89.1397 78.6577 88.2234C79.5243 87.307 80.1732 86.2061 80.5559 85.003C81.028 83.6855 81.2611 82.294 81.2443 80.8942C81.2846 79.1488 80.8477 77.4256 79.9809 75.9114C79.1141 74.3972 77.8505 73.1498 76.327 72.3043C74.5328 71.3591 72.5293 70.8842 70.5028 70.9238C68.1485 70.8196 65.8176 71.4307 63.8153 72.6768C58.8215 75.909 58.5702 81.1024 58.5702 84.5866L58.6467 112ZM88.4345 112H90.6199V87.8078C90.6199 82.5816 90.8822 77.7059 95.5918 74.66C97.2932 73.5898 99.2784 73.0626 101.285 73.1479C103.308 73.0685 105.309 73.5949 107.033 74.66C111.742 77.7168 111.95 82.5925 111.95 87.8078V90.0759H92.8382V92.2672H111.983V111.989H114.234V87.8078C114.234 83.0417 114.234 76.5773 108.333 72.7645C106.191 71.558 103.775 70.9243 101.318 70.9243C98.8606 70.9243 96.4448 71.558 94.3024 72.7645C88.358 76.5773 88.4345 83.0417 88.4345 87.8078V112ZM121.063 71.4607H123.249V112H121.063V71.4607ZM130.166 112H132.351V91.9166H140.842C145.715 91.9166 151.867 93.0122 151.867 104.407V108.976C151.905 109.993 152.029 111.004 152.239 112H154.534C154.262 111.161 154.122 110.285 154.118 109.403V104.287C154.118 91.5879 146.983 90.4155 144.196 90.1087C145.956 89.6157 147.715 88.279 149.485 84.1265L154.85 71.5045H152.359L148.753 80.2697C145.3 88.5639 143.093 89.6924 138.372 89.6924H132.351V71.5045H130.166V112ZM159.964 112H162.15V87.8078C162.15 82.5816 162.39 77.7059 167.1 74.66C168.806 73.5915 170.794 73.0645 172.804 73.1479C174.824 73.0674 176.822 73.5939 178.541 74.66C183.25 77.7168 183.469 82.5925 183.469 87.8078V90.0759H164.357V92.2672H183.502V111.989H185.753V87.8078C185.753 83.0417 185.753 76.5773 179.852 72.7645C177.71 71.558 175.294 70.9243 172.837 70.9243C170.38 70.9243 167.964 71.558 165.821 72.7645C159.877 76.5773 159.964 83.0417 159.964 87.8078V112ZM210.088 112V109.809H203.892C195.15 109.809 194.79 103.016 194.79 98.2385V71.5045H192.604V99.378C192.604 103.322 193.183 112 203.914 112H210.088ZM253.983 74.8243C253.353 74.8121 252.738 74.6399 252.193 74.3237C251.648 74.0075 251.192 73.5576 250.868 73.0165C250.09 73.8917 249.405 74.8465 248.825 75.8652C248.664 76.347 248.46 76.8128 248.213 77.2567C247.934 77.684 247.761 78.1726 247.711 78.681C247.711 79.1303 247.973 79.3494 248.497 79.3494C250.235 79.3055 252.07 77.8045 253.983 74.8243ZM255.425 71.5921C255.45 71.4427 255.438 71.2895 255.392 71.1453C255.346 71.0011 255.266 70.87 255.159 70.7629C255.053 70.6558 254.922 70.5758 254.778 70.5295C254.634 70.4831 254.481 70.4718 254.332 70.4965C253.719 70.5298 253.125 70.7306 252.617 71.0772C252.005 71.4716 251.721 71.877 251.721 72.2933C251.75 72.5459 251.838 72.7879 251.978 72.9995C252.119 73.2109 252.308 73.3858 252.529 73.5095C253.017 73.8427 253.59 74.0289 254.179 74.0464C254.244 74.0586 254.311 74.0586 254.376 74.0464C254.617 74.0464 254.868 73.7067 255.119 72.9507C255.286 72.5149 255.389 72.0574 255.425 71.5921ZM258.769 74.4408C258.443 74.6641 258.068 74.8068 257.676 74.8572C257.147 74.961 256.609 75.016 256.07 75.0215C255.753 75.0215 255.469 75.0215 255.163 75.0215C254.132 76.605 252.909 78.0549 251.524 79.3384C249.579 81.1207 247.842 82.0118 246.312 82.0118C244.181 82.0118 243.121 81.223 243.121 79.6342C243.121 77.7059 244.279 75.5146 246.64 73.0603C249 70.606 251.48 69.2803 253.775 69.2803C255.6 69.2803 256.529 69.9815 256.529 71.3839C256.38 72.3282 256.089 73.2444 255.666 74.1012C255.891 74.158 256.122 74.1875 256.354 74.1888C256.687 74.183 257.019 74.1536 257.348 74.1012C257.668 74.0297 257.994 73.9894 258.321 73.9807C258.66 73.9807 258.845 74.0573 258.856 74.2107L259.02 73.8601C259.419 72.9927 259.872 72.1511 260.375 71.3401C262.314 68.1425 264.641 65.1983 267.303 62.5748C271.095 58.8058 274.318 56.9212 276.941 56.9212C278.383 56.9212 279.126 57.2828 279.126 58.0169C279.126 59.8905 276.941 62.783 272.57 66.6945C269.584 69.4368 266.359 71.9047 262.932 74.0683L262.725 74.3641C264.036 74.37 265.321 73.989 266.418 73.2685C266.8 72.9946 267.369 72.5892 268.134 72.0961V72.1728C267.745 72.8754 267.247 73.5115 266.658 74.0574C265.984 74.8091 265.163 75.4131 264.245 75.8316C263.328 76.2502 262.334 76.4742 261.326 76.4897L254.114 87.9832L250.136 88.3995L255.797 79.2617C256.321 78.4838 257.206 77.0704 258.507 74.9448L258.769 74.4408ZM277.881 58.7072C277.575 58.2908 277.356 58.0826 277.181 58.0826C275.346 58.0826 272.698 60.1498 269.237 64.2841C266.911 66.8884 264.925 69.7786 263.326 72.885C266.366 71.001 269.198 68.7973 271.772 66.311C275.531 62.878 277.567 60.3434 277.881 58.7072Z" fill="#0083C3"/>
</svg>
