<svg width="143" height="56" viewBox="0 0 143 56" fill="none" xmlns="http://www.w3.org/2000/svg">
<path d="M0 0.417256V19.1366C0 21.7388 0.43467 25.4859 3.98353 27.7923C6.01382 29.0687 8.19815 29.2824 10.366 29.2824H14.0194V25.6557H10.2835C9.08399 25.6557 7.37284 25.6557 5.88176 24.3355C4.1706 22.7796 4.01655 20.6705 4.01655 19.1366V0.417256H0ZM34.1131 12.5352H19.6591C20.5724 7.3966 25.4418 4.04389 31.6152 4.04389H34.1351V0.417256H31.219C20.765 0.417256 15.472 8.04852 15.472 14.8635C15.472 21.6785 20.7375 29.2824 31.142 29.2824H34.1351V25.6557H30.9329C24.5945 25.6557 20.2203 21.5689 19.6591 16.1619H34.1351L34.1131 12.5352ZM65.2606 5.19981C63.1799 2.99569 60.5421 1.38924 57.6237 0.548738C56.2179 0.169688 54.7663 -0.014656 53.31 0.000909263C50.7062 -0.0129663 48.1318 0.548342 45.7721 1.6444C43.2447 2.82567 41.1015 4.69024 39.5868 7.02554C38.0721 9.36085 37.2469 12.0729 37.2053 14.8526C37.2053 23.07 44.4681 29.6878 52.8753 29.6878C60.2867 29.6878 68.0887 24.4505 68.0887 15.4442V13.0502H53.4475V16.6768H63.9016C63.3514 23.1576 57.8492 26.094 52.8973 26.094C49.9102 26.094 47.0455 24.9125 44.9333 22.8095C42.8211 20.7064 41.6345 17.8541 41.6345 14.8799C41.6345 11.9058 42.8211 9.05345 44.9333 6.95041C47.0455 4.84737 49.9102 3.66589 52.8973 3.66589C54.195 3.65295 55.4857 3.85664 56.7158 4.2685C58.8612 5.17914 60.841 6.43593 62.5756 7.98826L65.2606 5.19981ZM89.8495 12.5352H75.379C76.2923 7.3966 81.1617 4.04389 87.3406 4.04389H89.8495V0.417256H86.9389C76.4519 0.417256 71.1864 8.04852 71.1864 14.8635C71.1864 21.6785 76.4519 29.2824 86.8564 29.2824H89.8495V25.6557H86.6473C80.3089 25.6557 75.9347 21.5689 75.3735 16.1619H89.8495V12.5352ZM97.8991 29.2824V5.62163H97.9982L108.485 26.4391C109.377 28.3072 110.163 29.7261 112.634 29.7261C115.737 29.7261 115.737 27.1623 115.737 25.5078V0.417256H111.704V23.6014H111.605L101.987 4.25206C100.645 1.57318 99.7534 0.000909263 97.3819 0.000909263C93.9541 0.000909263 93.8716 2.6798 93.8716 4.63555V29.2878L97.8991 29.2824ZM124.749 29.2824V4.04389H127.33C135.071 4.04389 138.813 9.57696 138.813 14.8635C138.813 20.3418 134.994 25.6557 128.056 25.6557H126.466V29.2824H128.529C131.196 29.2611 133.807 28.5163 136.08 27.1283C138.353 25.7403 140.204 23.7614 141.432 21.4046C142.463 19.373 143 17.1287 143 14.8526C143 12.5764 142.463 10.3321 141.432 8.30052C137.778 1.40336 131.479 0.417256 126.857 0.417256H120.727V29.2824H124.749ZM29.5299 56H30.6303V42.3043C30.6303 40.6882 30.8394 38.4695 32.8641 37.2314C33.6647 36.7695 34.5806 36.5434 35.5051 36.5795C36.2547 36.5539 36.9991 36.7119 37.673 37.0396C38.3291 37.3298 38.8805 37.8128 39.2532 38.4238C39.6259 39.0347 39.8022 39.7446 39.7583 40.4581C39.7966 41.3531 39.5585 42.2383 39.076 42.9945C37.8381 44.6928 35.8133 44.7531 34.4763 44.7531H31.7252V45.8487H35.9728C37.1283 45.8487 38.988 46.0788 40.0829 47.9853C40.4722 48.7653 40.6612 49.6292 40.6331 50.4998C40.6556 51.3225 40.4662 52.1372 40.0829 52.8664C38.9825 54.8003 36.9852 54.9043 35.5217 54.9043H31.7032V56H36.1599C37.4419 56 40.0114 55.8356 41.3209 53.0417C41.6731 52.2659 41.8497 51.4224 41.8381 50.571C41.8601 49.5552 41.6335 48.5493 41.1778 47.6401C40.883 47.0124 40.4466 46.4609 39.9026 46.0285C39.3586 45.5962 38.7218 45.2947 38.0416 45.1475C38.6347 44.924 39.1694 44.5699 39.6058 44.1117C40.0422 43.6535 40.3689 43.1031 40.5616 42.5015C40.7993 41.8428 40.9167 41.147 40.9082 40.4471C40.9285 39.5744 40.7085 38.7128 40.2721 37.9557C39.8356 37.1986 39.1994 36.5749 38.4323 36.1521C37.5288 35.6796 36.52 35.4421 35.4997 35.4619C34.3142 35.4098 33.1405 35.7153 32.1324 36.3384C29.6179 37.9545 29.4913 40.5512 29.4913 42.2933L29.5299 56ZM44.5286 56H45.629V43.9039C45.629 41.2908 45.7611 38.8529 48.1325 37.33C48.9892 36.7949 49.9888 36.5313 50.9991 36.574C52.0178 36.5342 53.0253 36.7974 53.8932 37.33C56.2646 38.8584 56.3692 41.2963 56.3692 43.9039V45.0379H46.746V46.1336H56.3857V55.9945H57.5191V43.9039C57.5191 41.5209 57.5191 38.2887 54.548 36.3822C53.4693 35.779 52.2528 35.4621 51.0156 35.4621C49.7784 35.4621 48.562 35.779 47.4833 36.3822C44.4901 38.2887 44.5286 41.5209 44.5286 43.9039V56ZM60.9579 35.7303H62.0584V56H60.9579V35.7303ZM65.5412 56H66.6416V45.9583H70.9168C73.3707 45.9583 76.4684 46.5061 76.4684 52.2035V54.488C76.4873 54.9964 76.5499 55.5022 76.6555 56H77.8109C77.6743 55.5806 77.6038 55.1426 77.6018 54.7016V52.1433C77.6018 45.7939 74.009 45.2078 72.6059 45.0544C73.4918 44.8078 74.3776 44.1395 75.2689 42.0632L77.9705 35.7522H76.716L74.9003 40.1349C73.1616 44.2819 72.0502 44.8462 69.6733 44.8462H66.6416V35.7522H65.5412V56ZM80.5455 56H81.6459V43.9039C81.6459 41.2908 81.7669 38.8529 84.1384 37.33C84.9974 36.7957 85.9985 36.5322 87.0105 36.574C88.0275 36.5337 89.0334 36.7969 89.8991 37.33C92.2705 38.8584 92.3805 41.2963 92.3805 43.9039V45.0379H82.7573V46.1336H92.397V55.9945H93.5305V43.9039C93.5305 41.5209 93.5305 38.2887 90.5593 36.3822C89.4806 35.779 88.2642 35.4621 87.027 35.4621C85.7897 35.4621 84.5733 35.779 83.4946 36.3822C80.5014 38.2887 80.5455 41.5209 80.5455 43.9039V56ZM105.784 56V54.9043H102.664C98.2623 54.9043 98.0807 51.5078 98.0807 49.1193V35.7522H96.9803V49.689C96.9803 51.6612 97.2719 56 102.675 56H105.784ZM127.886 37.4121C127.569 37.4061 127.259 37.32 126.984 37.1618C126.71 37.0037 126.481 36.7788 126.318 36.5082C125.925 36.9458 125.581 37.4233 125.289 37.9326C125.208 38.1735 125.105 38.4064 124.981 38.6283C124.84 38.842 124.753 39.0863 124.727 39.3405C124.727 39.5651 124.859 39.6747 125.124 39.6747C125.998 39.6528 126.923 38.9022 127.886 37.4121ZM128.612 35.7961C128.624 35.7213 128.619 35.6448 128.595 35.5727C128.572 35.5006 128.532 35.435 128.478 35.3815C128.424 35.3279 128.359 35.2879 128.286 35.2647C128.214 35.2416 128.137 35.2359 128.062 35.2482C127.753 35.2649 127.454 35.3653 127.198 35.5386C126.89 35.7358 126.747 35.9385 126.747 36.1467C126.761 36.2729 126.806 36.394 126.876 36.4997C126.947 36.6055 127.042 36.6929 127.154 36.7548C127.399 36.9213 127.688 37.0145 127.985 37.0232C128.017 37.0293 128.051 37.0293 128.084 37.0232C128.205 37.0232 128.331 36.8534 128.458 36.4754C128.542 36.2575 128.594 36.0287 128.612 35.7961ZM130.296 37.2204C130.131 37.3321 129.943 37.4034 129.745 37.4286C129.479 37.4805 129.208 37.508 128.937 37.5108C128.777 37.5108 128.634 37.5108 128.48 37.5108C127.961 38.3025 127.345 39.0274 126.648 39.6692C125.668 40.5603 124.793 41.0059 124.023 41.0059C122.95 41.0059 122.417 40.6115 122.417 39.8171C122.417 38.8529 123 37.7573 124.188 36.5302C125.377 35.303 126.626 34.6401 127.781 34.6401C128.7 34.6401 129.168 34.9908 129.168 35.692C129.093 36.1641 128.946 36.6222 128.733 37.0506C128.846 37.079 128.963 37.0937 129.08 37.0944C129.247 37.0915 129.415 37.0768 129.58 37.0506C129.741 37.0149 129.905 36.9947 130.07 36.9903C130.241 36.9903 130.334 37.0287 130.34 37.1054L130.422 36.9301C130.623 36.4964 130.851 36.0756 131.104 35.6701C132.081 34.0713 133.253 32.5992 134.593 31.2874C136.502 29.4029 138.125 28.4606 139.446 28.4606C140.172 28.4606 140.546 28.6414 140.546 29.0085C140.546 29.9452 139.446 31.3915 137.245 33.3473C135.741 34.7184 134.117 35.9523 132.392 37.0341L132.287 37.1821C132.948 37.185 133.595 36.9945 134.147 36.6342C134.34 36.4973 134.626 36.2946 135.011 36.0481V36.0864C134.815 36.4377 134.564 36.7558 134.268 37.0287C133.929 37.4045 133.515 37.7066 133.053 37.9158C132.591 38.1251 132.091 38.2371 131.583 38.2449L127.952 43.9916L125.949 44.1998L128.799 39.6309C129.063 39.2419 129.509 38.5352 130.164 37.4724L130.296 37.2204ZM139.919 29.3536C139.765 29.1454 139.655 29.0413 139.567 29.0413C138.642 29.0413 137.309 30.0749 135.567 32.142C134.395 33.4442 133.395 34.8893 132.59 36.4425C134.121 35.5005 135.547 34.3986 136.843 33.1555C138.736 31.439 139.761 30.1717 139.919 29.3536Z" fill="white"/>
</svg>
